<svg xmlns="http://www.w3.org/2000/svg" xmlns:xlink="http://www.w3.org/1999/xlink" width="34" zoomAndPan="magnify" viewBox="0 0 25.5 25.499999" height="34" preserveAspectRatio="xMidYMid meet" version="1.0"><defs><filter x="0%" y="0%" width="100%" height="100%" id="41e0cf1b61"><feColorMatrix values="0 0 0 0 1 0 0 0 0 1 0 0 0 0 1 0 0 0 1 0" color-interpolation-filters="sRGB"/></filter><clipPath id="f8bf712d12"><path d="M 0 0 L 25.007812 0 L 25.007812 25.007812 L 0 25.007812 Z M 0 0 " clip-rule="nonzero"/></clipPath><mask id="5e1bd1012a"><g filter="url(#41e0cf1b61)"><rect x="-2.55" width="30.6" fill="#000000" y="-2.55" height="30.599999" fill-opacity="0.5"/></g></mask><clipPath id="5d3a611fac"><path d="M 0.113281 0.015625 L 24.386719 0.015625 L 24.386719 24.289062 L 0.113281 24.289062 Z M 0.113281 0.015625 " clip-rule="nonzero"/></clipPath><clipPath id="7cffb82fa1"><rect x="0" width="26" y="0" height="26"/></clipPath><mask id="bf2df578a0"><g filter="url(#41e0cf1b61)"><rect x="-2.55" width="30.6" fill="#000000" y="-2.55" height="30.599999" fill-opacity="0.5"/></g></mask><clipPath id="cb145e929e"><path d="M 0.542969 0.789062 L 18.199219 0.789062 L 18.199219 13.292969 L 0.542969 13.292969 Z M 0.542969 0.789062 " clip-rule="nonzero"/></clipPath><clipPath id="7aa9bb448c"><rect x="0" width="19" y="0" height="15"/></clipPath></defs><g clip-path="url(#f8bf712d12)"><g mask="url(#5e1bd1012a)"><g transform="matrix(1, 0, 0, 1, 0, 0)"><g clip-path="url(#7cffb82fa1)"><g clip-path="url(#5d3a611fac)"><path fill="#000000" d="M 12.25 24.289062 C 5.542969 24.289062 0.113281 18.820312 0.113281 12.152344 C 0.113281 5.484375 5.542969 0.015625 12.25 0.015625 C 18.953125 0.015625 24.386719 5.449219 24.386719 12.152344 C 24.386719 18.859375 18.917969 24.289062 12.25 24.289062 Z M 12.25 0.765625 C 5.957031 0.765625 0.863281 5.859375 0.863281 12.152344 C 0.863281 18.445312 5.957031 23.542969 12.25 23.542969 C 18.542969 23.542969 23.636719 18.445312 23.636719 12.152344 C 23.636719 5.859375 18.503906 0.765625 12.25 0.765625 Z M 12.25 0.765625 " fill-opacity="1" fill-rule="nonzero"/></g></g></g></g></g><g mask="url(#bf2df578a0)"><g transform="matrix(1, 0, 0, 1, 3, 5)"><g clip-path="url(#7aa9bb448c)"><g clip-path="url(#cb145e929e)"><path fill="#11171d" d="M 17.929688 9.832031 L 17.320312 9.832031 C 17.410156 9.730469 17.492188 9.621094 17.554688 9.5 C 17.734375 9.152344 17.730469 8.792969 17.730469 8.417969 C 17.730469 8.105469 17.734375 7.792969 17.730469 7.484375 C 17.722656 6.9375 17.433594 6.429688 16.949219 6.144531 C 16.722656 6.007812 16.484375 5.953125 16.238281 5.933594 L 16.238281 3.066406 C 16.238281 2.839844 16.242188 2.613281 16.238281 2.390625 C 16.222656 1.542969 15.535156 0.84375 14.652344 0.808594 C 14.152344 0.792969 13.644531 0.808594 13.140625 0.808594 L 4.207031 0.808594 C 3.703125 0.808594 3.214844 0.972656 2.878906 1.355469 C 2.5625 1.71875 2.480469 2.140625 2.480469 2.597656 L 2.480469 5.929688 C 1.660156 6.015625 1.027344 6.667969 1.015625 7.488281 C 1.011719 7.808594 1.015625 8.128906 1.015625 8.445312 C 1.015625 8.828125 1.015625 9.191406 1.210938 9.539062 C 1.269531 9.640625 1.335938 9.734375 1.414062 9.820312 C 1.222656 9.820312 1.03125 9.824219 0.839844 9.832031 C 0.832031 9.832031 0.820312 9.832031 0.8125 9.832031 C 0.667969 9.832031 0.542969 9.949219 0.542969 10.089844 L 0.542969 11.175781 C 0.542969 11.316406 0.667969 11.433594 0.8125 11.433594 L 1.980469 11.433594 L 1.980469 12.304688 C 1.980469 12.46875 1.964844 12.644531 2.019531 12.804688 C 2.132812 13.136719 2.4375 13.277344 2.773438 13.289062 C 2.785156 13.289062 2.800781 13.292969 2.816406 13.289062 C 2.835938 13.289062 2.851562 13.289062 2.867188 13.285156 C 3.230469 13.246094 3.515625 12.988281 3.546875 12.625 C 3.558594 12.496094 3.550781 12.363281 3.550781 12.234375 L 3.550781 11.433594 L 15.191406 11.433594 L 15.191406 12.304688 C 15.191406 12.46875 15.175781 12.644531 15.230469 12.804688 C 15.34375 13.136719 15.648438 13.277344 15.984375 13.289062 C 16 13.289062 16.011719 13.292969 16.027344 13.289062 C 16.046875 13.289062 16.0625 13.289062 16.082031 13.285156 C 16.441406 13.246094 16.730469 12.988281 16.761719 12.625 C 16.773438 12.496094 16.761719 12.363281 16.761719 12.234375 L 16.761719 11.441406 C 17.144531 11.445312 17.523438 11.449219 17.902344 11.433594 C 17.910156 11.433594 17.921875 11.433594 17.929688 11.433594 C 18.011719 11.433594 18.074219 11.40625 18.117188 11.359375 C 18.167969 11.320312 18.199219 11.257812 18.199219 11.175781 L 18.199219 10.089844 C 18.199219 9.949219 18.078125 9.832031 17.929688 9.832031 Z M 16.230469 11.4375 L 16.230469 12.042969 C 16.230469 12.230469 16.332031 12.757812 16.027344 12.773438 C 15.867188 12.773438 15.738281 12.742188 15.726562 12.5625 C 15.71875 12.417969 15.726562 12.269531 15.726562 12.125 L 15.726562 11.429688 L 16.230469 11.429688 Z M 16.550781 10.917969 C 16.53125 10.914062 16.515625 10.914062 16.496094 10.914062 L 15.460938 10.914062 C 15.441406 10.914062 15.421875 10.914062 15.40625 10.917969 L 3.339844 10.917969 C 3.320312 10.914062 3.300781 10.914062 3.285156 10.914062 L 2.246094 10.914062 C 2.230469 10.914062 2.210938 10.914062 2.191406 10.917969 L 1.511719 10.917969 C 1.371094 10.917969 1.222656 10.910156 1.078125 10.910156 L 1.078125 10.347656 L 17.230469 10.347656 C 17.371094 10.347656 17.519531 10.355469 17.664062 10.355469 L 17.664062 10.917969 Z M 3.015625 11.433594 L 3.015625 12.042969 C 3.015625 12.230469 3.121094 12.757812 2.816406 12.773438 C 2.652344 12.773438 2.527344 12.742188 2.515625 12.5625 C 2.503906 12.417969 2.515625 12.269531 2.515625 12.125 L 2.515625 11.429688 L 3.015625 11.429688 Z M 1.96875 9.621094 C 1.644531 9.378906 1.546875 9.03125 1.546875 8.65625 L 1.546875 7.625 C 1.546875 7.253906 1.636719 6.910156 1.949219 6.667969 C 2.113281 6.535156 2.292969 6.480469 2.480469 6.453125 C 2.566406 6.441406 2.65625 6.4375 2.746094 6.4375 C 2.8125 6.433594 2.878906 6.4375 2.945312 6.4375 L 15.96875 6.4375 C 16.019531 6.4375 16.066406 6.433594 16.117188 6.4375 C 16.15625 6.4375 16.195312 6.441406 16.238281 6.445312 C 16.6875 6.5 17.058594 6.808594 17.167969 7.246094 C 17.238281 7.523438 17.195312 7.851562 17.195312 8.136719 C 17.195312 8.417969 17.238281 8.746094 17.167969 9.027344 C 17.058594 9.46875 16.671875 9.785156 16.210938 9.832031 L 2.914062 9.832031 C 2.78125 9.832031 2.652344 9.828125 2.519531 9.828125 C 2.320312 9.808594 2.132812 9.742188 1.96875 9.621094 Z M 3.015625 2.40625 C 3.019531 1.8125 3.496094 1.332031 4.117188 1.324219 C 4.625 1.316406 5.132812 1.324219 5.640625 1.324219 L 14.472656 1.324219 C 14.859375 1.324219 15.21875 1.421875 15.46875 1.730469 C 15.699219 2.011719 15.703125 2.332031 15.703125 2.671875 L 15.703125 5.917969 L 15.363281 5.917969 C 15.367188 5.324219 15.367188 4.730469 15.363281 4.136719 C 15.363281 3.59375 15.03125 3.085938 14.457031 2.964844 C 14.210938 2.910156 13.945312 2.933594 13.695312 2.933594 L 11.03125 2.933594 C 10.777344 2.933594 10.527344 2.929688 10.273438 2.933594 C 9.902344 2.941406 9.574219 3.101562 9.359375 3.355469 C 9.207031 3.164062 8.988281 3.019531 8.71875 2.964844 C 8.472656 2.910156 8.203125 2.933594 7.957031 2.933594 L 5.292969 2.933594 C 5.039062 2.933594 4.789062 2.929688 4.535156 2.933594 C 3.882812 2.945312 3.371094 3.433594 3.351562 4.066406 C 3.335938 4.683594 3.347656 5.300781 3.351562 5.917969 C 3.238281 5.917969 3.128906 5.917969 3.015625 5.917969 L 3.015625 3.183594 C 3.015625 2.921875 3.011719 2.664062 3.015625 2.40625 Z M 3.921875 3.859375 C 4.015625 3.613281 4.257812 3.453125 4.523438 3.449219 C 4.707031 3.445312 4.890625 3.449219 5.074219 3.449219 L 7.628906 3.449219 C 7.890625 3.449219 8.152344 3.449219 8.414062 3.449219 C 8.792969 3.453125 9.085938 3.707031 9.089844 4.078125 C 9.074219 4.691406 9.089844 5.304688 9.089844 5.917969 L 5.210938 5.917969 C 4.769531 5.917969 4.328125 5.917969 3.886719 5.917969 L 3.886719 4.214844 C 3.886719 4.09375 3.878906 3.976562 3.921875 3.859375 Z M 9.625 4.121094 C 9.625 4.03125 9.628906 3.945312 9.664062 3.859375 C 9.753906 3.613281 9.996094 3.453125 10.265625 3.449219 C 10.445312 3.445312 10.628906 3.449219 10.8125 3.449219 L 13.367188 3.449219 C 13.628906 3.449219 13.890625 3.449219 14.152344 3.449219 C 14.53125 3.453125 14.828125 3.707031 14.832031 4.085938 C 14.835938 4.695312 14.832031 5.308594 14.832031 5.917969 L 9.625 5.917969 L 9.625 4.214844 C 9.625 4.183594 9.625 4.152344 9.625 4.121094 Z M 9.625 4.121094 " fill-opacity="1" fill-rule="nonzero"/></g></g></g></g></svg>