<svg xmlns="http://www.w3.org/2000/svg" xmlns:xlink="http://www.w3.org/1999/xlink" width="29" zoomAndPan="magnify" viewBox="0 0 21.75 21.749999" height="29" preserveAspectRatio="xMidYMid meet" version="1.0"><defs><clipPath id="cbcc2bc17f"><path d="M 0.265625 0.371094 L 21.03125 0.371094 L 21.03125 21.136719 L 0.265625 21.136719 Z M 0.265625 0.371094 " clip-rule="nonzero"/></clipPath><clipPath id="14e736d3ad"><path d="M 6.390625 5.492188 L 16.289062 5.492188 L 16.289062 14.402344 L 6.390625 14.402344 Z M 6.390625 5.492188 " clip-rule="nonzero"/></clipPath><clipPath id="1cf6630d59"><path d="M 6.390625 7.667969 L 16.289062 7.667969 L 16.289062 8.207031 L 6.390625 8.207031 Z M 6.390625 7.667969 " clip-rule="nonzero"/></clipPath><clipPath id="4ea2945002"><path d="M 7 4.855469 L 9 4.855469 L 9 7 L 7 7 Z M 7 4.855469 " clip-rule="nonzero"/></clipPath><clipPath id="50fb7ea40c"><path d="M 10 4.855469 L 11 4.855469 L 11 7 L 10 7 Z M 10 4.855469 " clip-rule="nonzero"/></clipPath><clipPath id="35843d58b8"><path d="M 12 4.855469 L 13 4.855469 L 13 7 L 12 7 Z M 12 4.855469 " clip-rule="nonzero"/></clipPath><clipPath id="1f2fbce3aa"><path d="M 14 4.855469 L 15 4.855469 L 15 7 L 14 7 Z M 14 4.855469 " clip-rule="nonzero"/></clipPath><clipPath id="f28bfc0f39"><path d="M 4.441406 8.941406 L 11.726562 8.941406 L 11.726562 16.722656 L 4.441406 16.722656 Z M 4.441406 8.941406 " clip-rule="nonzero"/></clipPath></defs><g clip-path="url(#cbcc2bc17f)"><path fill="#000000" d="M 10.648438 21.136719 C 4.910156 21.136719 0.265625 16.457031 0.265625 10.753906 C 0.265625 5.046875 4.910156 0.371094 10.648438 0.371094 C 16.382812 0.371094 21.03125 5.015625 21.03125 10.753906 C 21.03125 16.488281 16.351562 21.136719 10.648438 21.136719 Z M 10.648438 1.011719 C 5.265625 1.011719 0.90625 5.367188 0.90625 10.753906 C 0.90625 16.136719 5.265625 20.492188 10.648438 20.492188 C 16.03125 20.492188 20.390625 16.136719 20.390625 10.753906 C 20.390625 5.367188 16 1.011719 10.648438 1.011719 Z M 10.648438 1.011719 " fill-opacity="1" fill-rule="nonzero"/></g><g clip-path="url(#14e736d3ad)"><path fill="#212121" d="M 6.882812 8.914062 L 6.882812 6.480469 C 6.882812 6.359375 6.929688 6.246094 7.007812 6.164062 C 7.082031 6.082031 7.1875 6.03125 7.304688 6.03125 L 15.386719 6.03125 C 15.5 6.03125 15.605469 6.082031 15.683594 6.164062 C 15.757812 6.246094 15.808594 6.359375 15.808594 6.480469 L 15.808594 13.410156 C 15.808594 13.535156 15.757812 13.644531 15.683594 13.726562 C 15.605469 13.808594 15.5 13.859375 15.386719 13.859375 L 11.832031 13.859375 C 11.789062 14.035156 11.738281 14.207031 11.675781 14.375 L 15.386719 14.375 C 15.632812 14.375 15.859375 14.265625 16.023438 14.089844 C 16.1875 13.917969 16.289062 13.675781 16.289062 13.410156 L 16.289062 6.480469 C 16.289062 6.214844 16.1875 5.976562 16.023438 5.800781 C 15.859375 5.625 15.632812 5.519531 15.386719 5.519531 L 7.304688 5.519531 C 7.054688 5.519531 6.828125 5.625 6.664062 5.800781 C 6.503906 5.976562 6.398438 6.214844 6.398438 6.480469 L 6.398438 9.121094 C 6.554688 9.039062 6.71875 8.972656 6.882812 8.914062 " fill-opacity="1" fill-rule="nonzero"/></g><g clip-path="url(#1cf6630d59)"><path fill="#212121" d="M 6.640625 7.6875 C 6.507812 7.6875 6.398438 7.800781 6.398438 7.941406 C 6.398438 8.085938 6.507812 8.199219 6.640625 8.199219 L 16.046875 8.199219 C 16.179688 8.199219 16.289062 8.085938 16.289062 7.941406 C 16.289062 7.800781 16.179688 7.6875 16.046875 7.6875 L 6.640625 7.6875 " fill-opacity="1" fill-rule="nonzero"/></g><g clip-path="url(#4ea2945002)"><path fill="#212121" d="M 8.449219 5.113281 C 8.449219 4.972656 8.34375 4.855469 8.210938 4.855469 C 8.074219 4.855469 7.96875 4.972656 7.96875 5.113281 L 7.96875 6.398438 C 7.96875 6.542969 8.074219 6.65625 8.210938 6.65625 C 8.34375 6.65625 8.449219 6.542969 8.449219 6.398438 L 8.449219 5.113281 " fill-opacity="1" fill-rule="nonzero"/></g><g clip-path="url(#50fb7ea40c)"><path fill="#212121" d="M 10.539062 5.113281 C 10.539062 4.972656 10.433594 4.855469 10.300781 4.855469 C 10.167969 4.855469 10.058594 4.972656 10.058594 5.113281 L 10.058594 6.398438 C 10.058594 6.542969 10.167969 6.65625 10.300781 6.65625 C 10.433594 6.65625 10.539062 6.542969 10.539062 6.398438 L 10.539062 5.113281 " fill-opacity="1" fill-rule="nonzero"/></g><g clip-path="url(#35843d58b8)"><path fill="#212121" d="M 12.632812 5.113281 C 12.632812 4.972656 12.523438 4.855469 12.390625 4.855469 C 12.257812 4.855469 12.148438 4.972656 12.148438 5.113281 L 12.148438 6.398438 C 12.148438 6.542969 12.257812 6.65625 12.390625 6.65625 C 12.523438 6.65625 12.632812 6.542969 12.632812 6.398438 L 12.632812 5.113281 " fill-opacity="1" fill-rule="nonzero"/></g><g clip-path="url(#1f2fbce3aa)"><path fill="#212121" d="M 14.722656 5.113281 C 14.722656 4.972656 14.613281 4.855469 14.480469 4.855469 C 14.347656 4.855469 14.238281 4.972656 14.238281 5.113281 L 14.238281 6.398438 C 14.238281 6.542969 14.347656 6.65625 14.480469 6.65625 C 14.613281 6.65625 14.722656 6.542969 14.722656 6.398438 L 14.722656 5.113281 " fill-opacity="1" fill-rule="nonzero"/></g><g clip-path="url(#f28bfc0f39)"><path fill="#212121" d="M 8.074219 8.972656 C 9.078125 8.972656 9.984375 9.40625 10.644531 10.105469 C 11.300781 10.808594 11.707031 11.777344 11.707031 12.847656 C 11.707031 13.917969 11.300781 14.886719 10.644531 15.585938 C 9.984375 16.289062 9.078125 16.722656 8.074219 16.722656 L 8.074219 16.207031 C 8.945312 16.207031 9.730469 15.832031 10.300781 15.222656 C 10.871094 14.613281 11.222656 13.773438 11.222656 12.847656 C 11.222656 11.917969 10.871094 11.078125 10.300781 10.472656 C 9.730469 9.863281 8.945312 9.488281 8.074219 9.488281 Z M 8.074219 8.972656 L 8.074219 9.488281 C 7.203125 9.488281 6.417969 9.863281 5.847656 10.472656 C 5.277344 11.078125 4.925781 11.917969 4.925781 12.847656 C 4.925781 13.773438 5.277344 14.613281 5.847656 15.222656 C 6.417969 15.832031 7.203125 16.207031 8.074219 16.207031 L 8.074219 16.722656 C 7.070312 16.722656 6.164062 16.289062 5.503906 15.585938 C 4.847656 14.886719 4.441406 13.917969 4.441406 12.847656 C 4.441406 11.777344 4.847656 10.808594 5.503906 10.105469 C 6.164062 9.40625 7.070312 8.972656 8.074219 8.972656 " fill-opacity="1" fill-rule="nonzero"/></g><path fill="#212121" d="M 14.554688 8.710938 L 15.039062 8.710938 C 15.105469 8.710938 15.160156 8.769531 15.160156 8.839844 L 15.160156 9.898438 C 15.160156 9.96875 15.105469 10.027344 15.039062 10.027344 L 14.554688 10.027344 L 14.554688 9.769531 L 14.917969 9.769531 L 14.917969 8.96875 L 14.554688 8.96875 Z M 14.074219 8.710938 L 14.554688 8.710938 L 14.554688 8.96875 L 14.195312 8.96875 L 14.195312 9.769531 L 14.554688 9.769531 L 14.554688 10.027344 L 14.074219 10.027344 C 14.007812 10.027344 13.953125 9.96875 13.953125 9.898438 L 13.953125 8.839844 C 13.953125 8.769531 14.007812 8.710938 14.074219 8.710938 " fill-opacity="1" fill-rule="nonzero"/><path fill="#212121" d="M 12.671875 8.710938 L 13.152344 8.710938 C 13.21875 8.710938 13.273438 8.769531 13.273438 8.839844 L 13.273438 9.898438 C 13.273438 9.96875 13.21875 10.027344 13.152344 10.027344 L 12.671875 10.027344 L 12.671875 9.769531 L 13.035156 9.769531 L 13.035156 8.96875 L 12.671875 8.96875 Z M 12.1875 8.710938 L 12.671875 8.710938 L 12.671875 8.96875 L 12.308594 8.96875 L 12.308594 9.769531 L 12.671875 9.769531 L 12.671875 10.027344 L 12.1875 10.027344 C 12.121094 10.027344 12.070312 9.96875 12.070312 9.898438 L 12.070312 8.839844 C 12.070312 8.769531 12.121094 8.710938 12.1875 8.710938 " fill-opacity="1" fill-rule="nonzero"/><path fill="#212121" d="M 14.554688 10.355469 L 15.039062 10.355469 C 15.105469 10.355469 15.160156 10.414062 15.160156 10.484375 L 15.160156 11.542969 C 15.160156 11.613281 15.105469 11.671875 15.039062 11.671875 L 14.554688 11.671875 L 14.554688 11.414062 L 14.917969 11.414062 L 14.917969 10.613281 L 14.554688 10.613281 Z M 14.074219 10.355469 L 14.554688 10.355469 L 14.554688 10.613281 L 14.195312 10.613281 L 14.195312 11.414062 L 14.554688 11.414062 L 14.554688 11.671875 L 14.074219 11.671875 C 14.007812 11.671875 13.953125 11.613281 13.953125 11.542969 L 13.953125 10.484375 C 13.953125 10.414062 14.007812 10.355469 14.074219 10.355469 " fill-opacity="1" fill-rule="nonzero"/><path fill="#212121" d="M 12.671875 10.355469 L 13.152344 10.355469 C 13.21875 10.355469 13.273438 10.414062 13.273438 10.484375 L 13.273438 11.542969 C 13.273438 11.613281 13.21875 11.671875 13.152344 11.671875 L 12.671875 11.671875 L 12.671875 11.414062 L 13.035156 11.414062 L 13.035156 10.613281 L 12.671875 10.613281 Z M 12.1875 10.355469 L 12.671875 10.355469 L 12.671875 10.613281 L 12.308594 10.613281 L 12.308594 11.414062 L 12.671875 11.414062 L 12.671875 11.671875 L 12.1875 11.671875 C 12.121094 11.671875 12.070312 11.613281 12.070312 11.542969 L 12.070312 10.484375 C 12.070312 10.414062 12.121094 10.355469 12.1875 10.355469 " fill-opacity="1" fill-rule="nonzero"/><path fill="#212121" d="M 14.554688 12 L 15.039062 12 C 15.105469 12 15.160156 12.058594 15.160156 12.128906 L 15.160156 13.1875 C 15.160156 13.257812 15.105469 13.316406 15.039062 13.316406 L 14.554688 13.316406 L 14.554688 13.058594 L 14.917969 13.058594 L 14.917969 12.257812 L 14.554688 12.257812 Z M 14.074219 12 L 14.554688 12 L 14.554688 12.257812 L 14.195312 12.257812 L 14.195312 13.058594 L 14.554688 13.058594 L 14.554688 13.316406 L 14.074219 13.316406 C 14.007812 13.316406 13.953125 13.257812 13.953125 13.1875 L 13.953125 12.128906 C 13.953125 12.058594 14.007812 12 14.074219 12 " fill-opacity="1" fill-rule="nonzero"/><path fill="#212121" d="M 12.671875 12 L 13.152344 12 C 13.21875 12 13.273438 12.058594 13.273438 12.128906 L 13.273438 13.1875 C 13.273438 13.257812 13.21875 13.316406 13.152344 13.316406 L 12.671875 13.316406 L 12.671875 13.058594 L 13.035156 13.058594 L 13.035156 12.257812 L 12.671875 12.257812 Z M 12.1875 12 L 12.671875 12 L 12.671875 12.257812 L 12.308594 12.257812 L 12.308594 13.058594 L 12.671875 13.058594 L 12.671875 13.316406 L 12.1875 13.316406 C 12.121094 13.316406 12.070312 13.257812 12.070312 13.1875 L 12.070312 12.128906 C 12.070312 12.058594 12.121094 12 12.1875 12 " fill-opacity="1" fill-rule="nonzero"/><path fill="#212121" d="M 8.328125 10.257812 C 8.328125 10.117188 8.222656 10 8.089844 10 C 7.957031 10 7.847656 10.117188 7.847656 10.257812 L 7.847656 12.832031 C 7.847656 12.972656 7.957031 13.089844 8.089844 13.089844 C 8.222656 13.089844 8.328125 12.972656 8.328125 12.832031 L 8.328125 10.257812 " fill-opacity="1" fill-rule="nonzero"/><path fill="#212121" d="M 8.242188 12.632812 C 8.136719 12.542969 7.984375 12.558594 7.902344 12.667969 C 7.820312 12.78125 7.835938 12.941406 7.9375 13.03125 L 9.25 14.164062 C 9.351562 14.253906 9.503906 14.238281 9.585938 14.128906 C 9.671875 14.015625 9.65625 13.855469 9.550781 13.765625 L 8.242188 12.632812 " fill-opacity="1" fill-rule="nonzero"/></svg>