<svg xmlns="http://www.w3.org/2000/svg" xmlns:xlink="http://www.w3.org/1999/xlink" width="33" zoomAndPan="magnify" viewBox="0 0 24.75 24.75" height="33" preserveAspectRatio="xMidYMid meet" version="1.0"><defs><clipPath id="d634086be7"><path d="M 0.453125 0.171875 L 24.09375 0.171875 L 24.09375 23.808594 L 0.453125 23.808594 Z M 0.453125 0.171875 " clip-rule="nonzero"/></clipPath><clipPath id="8e06b4d8f9"><path d="M 2.984375 7.332031 L 21.605469 7.332031 L 21.605469 15 L 2.984375 15 Z M 2.984375 7.332031 " clip-rule="nonzero"/></clipPath><clipPath id="cc9c8bd65c"><path d="M 12 14 L 17 14 L 17 18.078125 L 12 18.078125 Z M 12 14 " clip-rule="nonzero"/></clipPath><clipPath id="daa63a495e"><path d="M 8 14 L 12 14 L 12 18.078125 L 8 18.078125 Z M 8 14 " clip-rule="nonzero"/></clipPath></defs><g clip-path="url(#d634086be7)"><path fill="#000000" d="M 12.273438 23.808594 C 5.742188 23.808594 0.453125 18.484375 0.453125 11.992188 C 0.453125 5.496094 5.742188 0.171875 12.273438 0.171875 C 18.800781 0.171875 24.09375 5.460938 24.09375 11.992188 C 24.09375 18.519531 18.765625 23.808594 12.273438 23.808594 Z M 12.273438 0.902344 C 6.144531 0.902344 1.183594 5.863281 1.183594 11.992188 C 1.183594 18.121094 6.144531 23.082031 12.273438 23.082031 C 18.402344 23.082031 23.363281 18.121094 23.363281 11.992188 C 23.363281 5.863281 18.363281 0.902344 12.273438 0.902344 Z M 12.273438 0.902344 " fill-opacity="1" fill-rule="nonzero"/></g><path fill="#000000" d="M 10.523438 11.152344 L 10.484375 11.152344 C 10.386719 11.152344 10.304688 11.183594 10.238281 11.25 C 10.167969 11.320312 10.136719 11.398438 10.136719 11.496094 C 10.136719 11.589844 10.167969 11.671875 10.238281 11.738281 C 10.304688 11.804688 10.386719 11.839844 10.484375 11.839844 L 10.523438 11.839844 C 10.621094 11.839844 10.703125 11.804688 10.769531 11.738281 C 10.839844 11.671875 10.875 11.589844 10.875 11.496094 C 10.875 11.398438 10.839844 11.320312 10.769531 11.25 C 10.703125 11.183594 10.621094 11.152344 10.523438 11.152344 Z M 10.523438 11.152344 " fill-opacity="1" fill-rule="nonzero"/><path fill="#000000" d="M 12.277344 11.152344 L 12.234375 11.152344 C 12.140625 11.152344 12.058594 11.183594 11.988281 11.25 C 11.921875 11.320312 11.886719 11.398438 11.886719 11.496094 C 11.886719 11.589844 11.921875 11.671875 11.988281 11.738281 C 12.058594 11.804688 12.140625 11.839844 12.234375 11.839844 L 12.277344 11.839844 C 12.371094 11.839844 12.453125 11.804688 12.523438 11.738281 C 12.589844 11.671875 12.625 11.589844 12.625 11.496094 C 12.625 11.398438 12.589844 11.320312 12.523438 11.25 C 12.453125 11.183594 12.371094 11.152344 12.277344 11.152344 Z M 12.277344 11.152344 " fill-opacity="1" fill-rule="nonzero"/><path fill="#000000" d="M 14.101562 11.152344 L 14.0625 11.152344 C 13.964844 11.152344 13.882812 11.183594 13.816406 11.25 C 13.746094 11.320312 13.714844 11.398438 13.714844 11.496094 C 13.714844 11.589844 13.746094 11.671875 13.816406 11.738281 C 13.882812 11.804688 13.964844 11.839844 14.0625 11.839844 L 14.101562 11.839844 C 14.199219 11.839844 14.28125 11.804688 14.351562 11.738281 C 14.417969 11.671875 14.453125 11.589844 14.453125 11.496094 C 14.453125 11.398438 14.417969 11.320312 14.351562 11.25 C 14.28125 11.183594 14.199219 11.152344 14.101562 11.152344 Z M 14.101562 11.152344 " fill-opacity="1" fill-rule="nonzero"/><g clip-path="url(#8e06b4d8f9)"><path fill="#000000" d="M 20.261719 7.34375 L 4.328125 7.34375 C 4.148438 7.34375 3.976562 7.378906 3.8125 7.445312 C 3.648438 7.511719 3.503906 7.609375 3.378906 7.734375 C 3.25 7.855469 3.152344 8 3.085938 8.164062 C 3.015625 8.324219 2.984375 8.496094 2.984375 8.671875 L 2.984375 12.960938 C 2.984375 13.136719 3.015625 13.308594 3.085938 13.46875 C 3.152344 13.632812 3.25 13.773438 3.378906 13.898438 C 3.503906 14.023438 3.648438 14.121094 3.8125 14.1875 C 3.976562 14.253906 4.148438 14.289062 4.328125 14.289062 L 20.261719 14.289062 C 20.4375 14.289062 20.609375 14.253906 20.773438 14.1875 C 20.941406 14.121094 21.085938 14.023438 21.210938 13.898438 C 21.335938 13.773438 21.433594 13.632812 21.503906 13.46875 C 21.570312 13.308594 21.605469 13.136719 21.605469 12.960938 L 21.605469 8.671875 C 21.605469 8.496094 21.570312 8.324219 21.503906 8.164062 C 21.433594 8 21.335938 7.855469 21.210938 7.734375 C 21.085938 7.609375 20.941406 7.511719 20.773438 7.445312 C 20.609375 7.378906 20.4375 7.34375 20.261719 7.34375 Z M 7.5625 13.597656 L 7.5625 13.171875 C 7.5625 13.070312 7.597656 12.984375 7.671875 12.914062 C 7.742188 12.84375 7.828125 12.808594 7.929688 12.808594 L 16.660156 12.808594 C 16.761719 12.808594 16.847656 12.84375 16.917969 12.914062 C 16.992188 12.984375 17.027344 13.070312 17.027344 13.171875 L 17.027344 13.597656 Z M 20.910156 12.964844 C 20.910156 13.140625 20.84375 13.289062 20.71875 13.414062 C 20.59375 13.535156 20.441406 13.597656 20.265625 13.597656 L 17.726562 13.597656 L 17.726562 13.171875 C 17.726562 13.03125 17.699219 12.898438 17.644531 12.769531 C 17.589844 12.640625 17.511719 12.527344 17.414062 12.429688 C 17.3125 12.328125 17.199219 12.253906 17.066406 12.199219 C 16.9375 12.148438 16.800781 12.121094 16.660156 12.121094 L 7.929688 12.121094 C 7.789062 12.121094 7.652344 12.148438 7.523438 12.199219 C 7.390625 12.253906 7.277344 12.328125 7.175781 12.429688 C 7.074219 12.527344 7 12.640625 6.945312 12.769531 C 6.890625 12.898438 6.863281 13.03125 6.863281 13.171875 L 6.863281 13.597656 L 4.328125 13.597656 C 4.152344 13.597656 4 13.535156 3.871094 13.414062 C 3.746094 13.289062 3.683594 13.140625 3.683594 12.964844 L 3.683594 8.671875 C 3.683594 8.496094 3.746094 8.34375 3.871094 8.222656 C 4 8.097656 4.152344 8.035156 4.328125 8.035156 L 20.261719 8.035156 C 20.4375 8.035156 20.589844 8.097656 20.714844 8.222656 C 20.839844 8.34375 20.90625 8.496094 20.90625 8.671875 Z M 20.910156 12.964844 " fill-opacity="1" fill-rule="nonzero"/></g><path fill="#000000" d="M 19.007812 8.433594 L 5.582031 8.433594 C 5.488281 8.433594 5.40625 8.464844 5.335938 8.535156 C 5.269531 8.601562 5.234375 8.683594 5.234375 8.777344 C 5.234375 8.871094 5.269531 8.953125 5.335938 9.019531 C 5.40625 9.089844 5.488281 9.121094 5.582031 9.121094 L 19.007812 9.121094 C 19.101562 9.121094 19.183594 9.089844 19.253906 9.019531 C 19.320312 8.953125 19.355469 8.871094 19.355469 8.777344 C 19.355469 8.683594 19.320312 8.601562 19.253906 8.535156 C 19.183594 8.464844 19.101562 8.433594 19.007812 8.433594 Z M 19.007812 8.433594 " fill-opacity="1" fill-rule="nonzero"/><path fill="#000000" d="M 19.007812 9.792969 L 5.582031 9.792969 C 5.488281 9.792969 5.40625 9.824219 5.335938 9.890625 C 5.269531 9.960938 5.234375 10.039062 5.234375 10.136719 C 5.234375 10.230469 5.269531 10.3125 5.335938 10.378906 C 5.40625 10.445312 5.488281 10.480469 5.582031 10.480469 L 19.007812 10.480469 C 19.101562 10.480469 19.183594 10.445312 19.253906 10.378906 C 19.320312 10.3125 19.355469 10.230469 19.355469 10.136719 C 19.355469 10.039062 19.320312 9.960938 19.253906 9.890625 C 19.183594 9.824219 19.101562 9.792969 19.007812 9.792969 Z M 19.007812 9.792969 " fill-opacity="1" fill-rule="nonzero"/><g clip-path="url(#cc9c8bd65c)"><path fill="#000000" d="M 16.203125 17.378906 C 15.859375 17.378906 15.523438 17.3125 15.203125 17.183594 C 14.882812 17.050781 14.597656 16.867188 14.351562 16.625 C 14.105469 16.382812 13.917969 16.101562 13.785156 15.785156 C 13.652344 15.46875 13.585938 15.140625 13.585938 14.796875 C 13.585938 14.703125 13.550781 14.621094 13.480469 14.554688 C 13.414062 14.488281 13.332031 14.453125 13.234375 14.453125 C 13.140625 14.453125 13.058594 14.488281 12.988281 14.554688 C 12.921875 14.621094 12.886719 14.703125 12.886719 14.796875 C 12.886719 15.230469 12.972656 15.648438 13.140625 16.050781 C 13.308594 16.449219 13.546875 16.804688 13.859375 17.109375 C 14.171875 17.417969 14.527344 17.652344 14.9375 17.820312 C 15.34375 17.984375 15.765625 18.066406 16.203125 18.066406 C 16.300781 18.066406 16.382812 18.035156 16.453125 17.96875 C 16.519531 17.898438 16.554688 17.820312 16.554688 17.722656 C 16.554688 17.628906 16.519531 17.546875 16.453125 17.480469 C 16.382812 17.414062 16.300781 17.378906 16.203125 17.378906 Z M 16.203125 17.378906 " fill-opacity="1" fill-rule="nonzero"/></g><path fill="#000000" d="M 17.957031 16.421875 C 17.742188 16.421875 17.53125 16.382812 17.328125 16.296875 C 17.128906 16.214844 16.949219 16.097656 16.792969 15.945312 C 16.640625 15.792969 16.519531 15.617188 16.4375 15.417969 C 16.355469 15.21875 16.3125 15.011719 16.3125 14.796875 C 16.3125 14.703125 16.277344 14.621094 16.210938 14.554688 C 16.140625 14.488281 16.058594 14.453125 15.960938 14.453125 C 15.867188 14.453125 15.785156 14.488281 15.714844 14.554688 C 15.648438 14.621094 15.613281 14.703125 15.613281 14.796875 C 15.613281 15.105469 15.671875 15.398438 15.792969 15.683594 C 15.910156 15.964844 16.082031 16.214844 16.300781 16.433594 C 16.519531 16.648438 16.773438 16.816406 17.0625 16.933594 C 17.347656 17.050781 17.648438 17.109375 17.957031 17.109375 C 18.054688 17.109375 18.136719 17.078125 18.207031 17.011719 C 18.273438 16.941406 18.308594 16.863281 18.308594 16.765625 C 18.308594 16.671875 18.273438 16.589844 18.207031 16.523438 C 18.136719 16.457031 18.054688 16.421875 17.957031 16.421875 Z M 17.957031 16.421875 " fill-opacity="1" fill-rule="nonzero"/><g clip-path="url(#daa63a495e)"><path fill="#000000" d="M 11.429688 14.453125 C 11.332031 14.453125 11.25 14.488281 11.183594 14.554688 C 11.113281 14.621094 11.082031 14.703125 11.082031 14.796875 C 11.078125 15.140625 11.011719 15.46875 10.878906 15.785156 C 10.746094 16.101562 10.558594 16.378906 10.3125 16.621094 C 10.070312 16.863281 9.785156 17.050781 9.464844 17.179688 C 9.144531 17.3125 8.8125 17.378906 8.464844 17.378906 C 8.367188 17.378906 8.285156 17.414062 8.21875 17.480469 C 8.148438 17.546875 8.117188 17.628906 8.117188 17.722656 C 8.117188 17.820312 8.148438 17.898438 8.21875 17.96875 C 8.285156 18.035156 8.367188 18.066406 8.464844 18.066406 C 8.90625 18.066406 9.328125 17.984375 9.734375 17.816406 C 10.140625 17.652344 10.496094 17.414062 10.808594 17.109375 C 11.117188 16.800781 11.359375 16.449219 11.527344 16.046875 C 11.695312 15.648438 11.78125 15.230469 11.78125 14.796875 C 11.78125 14.703125 11.746094 14.621094 11.675781 14.554688 C 11.609375 14.484375 11.527344 14.453125 11.429688 14.453125 Z M 11.429688 14.453125 " fill-opacity="1" fill-rule="nonzero"/></g><path fill="#000000" d="M 9.054688 14.796875 C 9.054688 14.703125 9.019531 14.621094 8.949219 14.554688 C 8.882812 14.488281 8.800781 14.453125 8.703125 14.453125 C 8.609375 14.453125 8.523438 14.488281 8.457031 14.554688 C 8.390625 14.621094 8.355469 14.703125 8.355469 14.796875 C 8.355469 15.011719 8.3125 15.21875 8.230469 15.417969 C 8.144531 15.617188 8.027344 15.792969 7.871094 15.945312 C 7.71875 16.097656 7.539062 16.214844 7.335938 16.296875 C 7.136719 16.382812 6.925781 16.421875 6.707031 16.421875 C 6.609375 16.421875 6.527344 16.457031 6.460938 16.523438 C 6.390625 16.589844 6.359375 16.671875 6.359375 16.765625 C 6.359375 16.863281 6.390625 16.945312 6.460938 17.011719 C 6.527344 17.078125 6.609375 17.113281 6.707031 17.113281 C 7.019531 17.109375 7.316406 17.050781 7.605469 16.933594 C 7.890625 16.816406 8.144531 16.648438 8.367188 16.433594 C 8.585938 16.214844 8.753906 15.964844 8.875 15.683594 C 8.992188 15.398438 9.054688 15.105469 9.054688 14.796875 Z M 9.054688 14.796875 " fill-opacity="1" fill-rule="nonzero"/></svg>