<svg xmlns="http://www.w3.org/2000/svg" xmlns:xlink="http://www.w3.org/1999/xlink" width="32" zoomAndPan="magnify" viewBox="0 0 24 23.999999" height="32" preserveAspectRatio="xMidYMid meet" version="1.0"><defs><clipPath id="9565bc8642"><path d="M 0.652344 0.078125 L 23.84375 0.078125 L 23.84375 23.269531 L 0.652344 23.269531 Z M 0.652344 0.078125 " clip-rule="nonzero"/></clipPath><clipPath id="7e2d2ce672"><path d="M 4.050781 6.753906 L 20.214844 6.753906 L 20.214844 16.59375 L 4.050781 16.59375 Z M 4.050781 6.753906 " clip-rule="nonzero"/></clipPath></defs><g clip-path="url(#9565bc8642)"><path fill="#000000" d="M 12.246094 23.269531 C 5.839844 23.269531 0.652344 18.042969 0.652344 11.675781 C 0.652344 5.304688 5.839844 0.078125 12.246094 0.078125 C 18.652344 0.078125 23.84375 5.269531 23.84375 11.675781 C 23.84375 18.082031 18.617188 23.269531 12.246094 23.269531 Z M 12.246094 0.792969 C 6.234375 0.792969 1.367188 5.660156 1.367188 11.675781 C 1.367188 17.6875 6.234375 22.554688 12.246094 22.554688 C 18.257812 22.554688 23.125 17.6875 23.125 11.675781 C 23.125 5.660156 18.222656 0.792969 12.246094 0.792969 Z M 12.246094 0.792969 " fill-opacity="1" fill-rule="nonzero"/></g><g clip-path="url(#7e2d2ce672)"><path fill="#231f20" d="M 19.898438 8.097656 L 4.367188 8.097656 L 4.367188 7.078125 L 19.898438 7.078125 Z M 19.519531 16.269531 L 18.804688 16.269531 L 18.804688 13.488281 L 19.519531 13.488281 Z M 13.304688 10.3125 L 13.304688 8.476562 L 19.519531 8.476562 L 19.519531 13.171875 L 13.304688 13.171875 Z M 5.847656 10.152344 L 5.847656 8.476562 L 12.988281 8.476562 L 12.988281 10.152344 Z M 5.53125 16.269531 L 4.816406 16.269531 L 4.816406 8.476562 L 5.53125 8.476562 Z M 20.058594 6.757812 L 4.210938 6.757812 C 4.121094 6.757812 4.050781 6.828125 4.050781 6.917969 L 4.050781 8.257812 C 4.050781 8.347656 4.121094 8.417969 4.210938 8.417969 L 4.5 8.417969 L 4.5 16.429688 C 4.5 16.519531 4.570312 16.589844 4.65625 16.589844 L 5.6875 16.589844 C 5.773438 16.589844 5.847656 16.519531 5.847656 16.429688 L 5.847656 10.472656 L 12.988281 10.472656 L 12.988281 13.332031 C 12.988281 13.417969 13.058594 13.488281 13.148438 13.488281 L 18.488281 13.488281 L 18.488281 16.429688 C 18.488281 16.519531 18.558594 16.589844 18.648438 16.589844 L 19.679688 16.589844 C 19.765625 16.589844 19.835938 16.519531 19.835938 16.429688 L 19.835938 8.417969 L 20.058594 8.417969 C 20.144531 8.417969 20.214844 8.347656 20.214844 8.257812 L 20.214844 6.917969 C 20.214844 6.828125 20.144531 6.757812 20.058594 6.757812 " fill-opacity="1" fill-rule="nonzero"/></g><path fill="#231f20" d="M 13.785156 9.054688 L 19.003906 9.054688 L 19.003906 10.378906 L 13.785156 10.378906 Z M 13.628906 10.699219 L 19.164062 10.699219 C 19.25 10.699219 19.320312 10.625 19.320312 10.539062 L 19.320312 8.894531 C 19.320312 8.808594 19.25 8.738281 19.164062 8.738281 L 13.628906 8.738281 C 13.542969 8.738281 13.46875 8.808594 13.46875 8.894531 L 13.46875 10.539062 C 13.46875 10.625 13.542969 10.699219 13.628906 10.699219 " fill-opacity="1" fill-rule="nonzero"/><path fill="#231f20" d="M 19.003906 12.589844 L 13.785156 12.589844 L 13.785156 11.269531 L 19.003906 11.269531 Z M 19.320312 12.75 L 19.320312 11.109375 C 19.320312 11.019531 19.25 10.949219 19.164062 10.949219 L 13.628906 10.949219 C 13.542969 10.949219 13.46875 11.019531 13.46875 11.109375 L 13.46875 12.75 C 13.46875 12.839844 13.542969 12.910156 13.628906 12.910156 L 19.164062 12.910156 C 19.25 12.910156 19.320312 12.839844 19.320312 12.75 " fill-opacity="1" fill-rule="nonzero"/><path fill="#231f20" d="M 12.371094 9.558594 L 6.328125 9.558594 L 6.328125 9.054688 L 12.371094 9.054688 Z M 12.527344 8.738281 L 6.167969 8.738281 C 6.082031 8.738281 6.011719 8.808594 6.011719 8.894531 L 6.011719 9.71875 C 6.011719 9.804688 6.082031 9.875 6.167969 9.875 L 12.527344 9.875 C 12.617188 9.875 12.6875 9.804688 12.6875 9.71875 L 12.6875 8.894531 C 12.6875 8.808594 12.617188 8.738281 12.527344 8.738281 " fill-opacity="1" fill-rule="nonzero"/><path fill="#231f20" d="M 17.066406 9.605469 L 15.761719 9.605469 C 15.699219 9.605469 15.648438 9.65625 15.648438 9.71875 C 15.648438 9.777344 15.699219 9.828125 15.761719 9.828125 L 17.066406 9.828125 C 17.128906 9.828125 17.175781 9.777344 17.175781 9.71875 C 17.175781 9.65625 17.128906 9.605469 17.066406 9.605469 " fill-opacity="1" fill-rule="nonzero"/><path fill="#231f20" d="M 15.761719 12.042969 L 17.066406 12.042969 C 17.128906 12.042969 17.175781 11.992188 17.175781 11.929688 C 17.175781 11.867188 17.128906 11.816406 17.066406 11.816406 L 15.761719 11.816406 C 15.699219 11.816406 15.648438 11.867188 15.648438 11.929688 C 15.648438 11.992188 15.699219 12.042969 15.761719 12.042969 " fill-opacity="1" fill-rule="nonzero"/><path fill="#231f20" d="M 8.4375 9.425781 L 9.746094 9.425781 C 9.804688 9.425781 9.855469 9.375 9.855469 9.316406 C 9.855469 9.253906 9.804688 9.203125 9.746094 9.203125 L 8.4375 9.203125 C 8.375 9.203125 8.328125 9.253906 8.328125 9.316406 C 8.328125 9.375 8.375 9.425781 8.4375 9.425781 " fill-opacity="1" fill-rule="nonzero"/></svg>