<svg xmlns="http://www.w3.org/2000/svg" xmlns:xlink="http://www.w3.org/1999/xlink" width="30" zoomAndPan="magnify" viewBox="0 0 22.5 22.5" height="30" preserveAspectRatio="xMidYMid meet" version="1.0"><defs><clipPath id="8df61a5000"><path d="M 0.523438 0.222656 L 21.800781 0.222656 L 21.800781 21.5 L 0.523438 21.5 Z M 0.523438 0.222656 " clip-rule="nonzero"/></clipPath><clipPath id="bcbd75f69d"><path d="M 6.625 3.0625 L 15.652344 3.0625 L 15.652344 18.539062 L 6.625 18.539062 Z M 6.625 3.0625 " clip-rule="nonzero"/></clipPath></defs><g clip-path="url(#8df61a5000)"><path fill="#000000" d="M 11.160156 21.5 C 5.285156 21.5 0.523438 16.707031 0.523438 10.863281 C 0.523438 5.015625 5.285156 0.222656 11.160156 0.222656 C 17.039062 0.222656 21.800781 4.984375 21.800781 10.863281 C 21.800781 16.738281 17.007812 21.5 11.160156 21.5 Z M 11.160156 0.878906 C 5.644531 0.878906 1.179688 5.34375 1.179688 10.863281 C 1.179688 16.378906 5.644531 20.84375 11.160156 20.84375 C 16.679688 20.84375 21.144531 16.378906 21.144531 10.863281 C 21.144531 5.34375 16.644531 0.878906 11.160156 0.878906 Z M 11.160156 0.878906 " fill-opacity="1" fill-rule="nonzero"/></g><g clip-path="url(#bcbd75f69d)"><path fill="#000000" d="M 11.414062 16.664062 C 11.417969 16.636719 11.414062 16.597656 11.410156 16.558594 C 11.40625 16.527344 11.40625 16.496094 11.40625 16.472656 L 11.40625 11.308594 C 11.40625 11.1875 11.40625 11.0625 11.40625 10.9375 C 11.40625 10.824219 11.40625 10.710938 11.40625 10.59375 C 11.359375 10.59375 11.3125 10.597656 11.261719 10.597656 C 11.179688 10.597656 11.09375 10.59375 11.007812 10.59375 L 11.007812 16.597656 C 11.007812 16.613281 11.007812 16.632812 11.011719 16.640625 C 11.011719 16.640625 11.015625 16.640625 11.023438 16.648438 C 11.074219 16.679688 11.175781 16.703125 11.292969 16.703125 L 11.296875 16.703125 C 11.339844 16.703125 11.375 16.695312 11.398438 16.683594 C 11.40625 16.679688 11.410156 16.675781 11.414062 16.664062 Z M 13.425781 3.582031 C 12.878906 3.496094 11.902344 3.359375 11.109375 3.359375 C 10.417969 3.359375 9.730469 3.394531 9.277344 3.421875 C 10.632812 3.722656 12.050781 3.777344 13.425781 3.582031 Z M 12.742188 12.59375 C 12.75 12.550781 12.734375 12.503906 12.703125 12.464844 C 12.671875 12.425781 12.636719 12.40625 12.59375 12.402344 C 12.589844 12.402344 12.589844 12.402344 12.585938 12.398438 C 12.578125 12.402344 12.570312 12.398438 12.5625 12.398438 C 12.554688 12.394531 12.542969 12.394531 12.535156 12.394531 C 12.5 12.394531 12.46875 12.40625 12.4375 12.429688 C 12.394531 12.460938 12.367188 12.503906 12.363281 12.550781 C 12.359375 12.59375 12.375 12.640625 12.410156 12.679688 C 12.445312 12.71875 12.492188 12.746094 12.539062 12.75 C 12.628906 12.753906 12.730469 12.679688 12.742188 12.59375 Z M 13.929688 16.835938 C 13.933594 16.789062 13.925781 16.742188 13.90625 16.695312 C 13.769531 16.5625 13.59375 16.46875 13.433594 16.394531 C 12.859375 16.128906 12.234375 15.972656 11.601562 15.9375 L 11.601562 16.472656 C 11.601562 16.492188 11.605469 16.515625 11.609375 16.539062 C 11.613281 16.589844 11.621094 16.652344 11.605469 16.710938 C 11.589844 16.777344 11.546875 16.832031 11.484375 16.863281 C 11.417969 16.898438 11.34375 16.902344 11.296875 16.902344 L 11.292969 16.902344 C 11.183594 16.902344 11.023438 16.886719 10.914062 16.816406 C 10.808594 16.746094 10.808594 16.664062 10.8125 16.597656 L 10.8125 15.914062 C 10.34375 15.941406 9.878906 16.015625 9.425781 16.132812 C 9.140625 16.207031 8.820312 16.308594 8.582031 16.511719 C 8.550781 16.539062 8.523438 16.5625 8.5 16.589844 C 8.40625 16.722656 8.355469 16.902344 8.425781 17.058594 C 8.511719 17.246094 8.742188 17.332031 8.953125 17.390625 C 9.507812 17.546875 10.117188 17.628906 10.808594 17.636719 C 11.113281 17.644531 11.421875 17.632812 11.753906 17.613281 C 11.90625 17.601562 12.0625 17.589844 12.222656 17.574219 C 12.34375 17.558594 12.441406 17.53125 12.558594 17.496094 L 12.621094 17.476562 C 12.667969 17.460938 12.707031 17.449219 12.75 17.4375 C 13.011719 17.363281 13.273438 17.277344 13.527344 17.179688 C 13.625 17.140625 13.714844 17.101562 13.792969 17.046875 C 13.867188 16.984375 13.917969 16.910156 13.929688 16.835938 Z M 14.105469 17.203125 C 14.121094 17.117188 14.109375 17.019531 14.066406 16.925781 C 14.039062 17.015625 13.976562 17.101562 13.886719 17.171875 C 13.796875 17.242188 13.691406 17.285156 13.582031 17.328125 C 13.324219 17.425781 13.058594 17.515625 12.792969 17.589844 C 12.75 17.601562 12.710938 17.613281 12.671875 17.625 L 12.605469 17.644531 C 12.484375 17.683594 12.375 17.71875 12.238281 17.730469 C 12.078125 17.746094 11.917969 17.757812 11.765625 17.769531 C 11.492188 17.789062 11.230469 17.796875 10.976562 17.796875 C 10.917969 17.796875 10.863281 17.796875 10.804688 17.796875 C 10.097656 17.785156 9.480469 17.703125 8.910156 17.542969 C 8.664062 17.476562 8.394531 17.371094 8.28125 17.125 C 8.273438 17.105469 8.265625 17.085938 8.261719 17.066406 C 8.253906 17.128906 8.253906 17.191406 8.265625 17.253906 C 8.300781 17.429688 8.429688 17.609375 8.617188 17.738281 C 8.804688 17.867188 9.035156 17.945312 9.238281 18 C 10.625 18.386719 12.128906 18.304688 13.464844 17.765625 C 13.632812 17.695312 13.769531 17.632812 13.882812 17.542969 C 14.003906 17.445312 14.085938 17.324219 14.105469 17.203125 Z M 15.289062 9.757812 C 15.25 9.605469 15.203125 9.457031 15.160156 9.296875 C 15.019531 8.800781 14.871094 8.292969 14.832031 7.78125 C 14.808594 7.453125 14.710938 7.167969 14.605469 6.867188 C 14.539062 6.6875 14.472656 6.496094 14.421875 6.289062 L 14.019531 4.675781 C 14.015625 4.65625 14.003906 4.597656 13.988281 4.515625 C 13.90625 4.105469 13.847656 3.832031 13.804688 3.695312 C 13.144531 3.808594 12.472656 3.867188 11.800781 3.867188 C 10.785156 3.867188 9.773438 3.734375 8.792969 3.476562 C 8.671875 3.757812 8.410156 4.808594 8.320312 5.175781 C 8.28125 5.339844 8.257812 5.425781 8.246094 5.460938 L 7.320312 8.59375 C 7.316406 8.605469 7.300781 8.644531 7.28125 8.707031 C 7.148438 9.136719 7.058594 9.421875 7.019531 9.5625 C 8.671875 10.273438 10.683594 10.347656 12.09375 10.277344 C 13.019531 10.234375 14.210938 10.132812 15.289062 9.757812 Z M 15.609375 9.8125 C 15.632812 9.902344 15.585938 9.964844 15.476562 10.003906 C 14.5 10.359375 13.441406 10.488281 12.546875 10.550781 L 12.65625 12.25 C 12.722656 12.269531 12.78125 12.308594 12.828125 12.363281 C 12.886719 12.4375 12.910156 12.527344 12.898438 12.617188 C 12.875 12.777344 12.71875 12.90625 12.550781 12.90625 C 12.542969 12.90625 12.535156 12.90625 12.527344 12.90625 C 12.4375 12.902344 12.351562 12.855469 12.289062 12.78125 C 12.230469 12.710938 12.199219 12.621094 12.207031 12.535156 C 12.210938 12.445312 12.265625 12.359375 12.34375 12.300781 C 12.390625 12.265625 12.441406 12.246094 12.496094 12.238281 L 12.386719 10.558594 C 12.292969 10.566406 12.199219 10.570312 12.109375 10.574219 C 11.949219 10.582031 11.777344 10.585938 11.605469 10.59375 C 11.605469 10.707031 11.605469 10.824219 11.605469 10.9375 C 11.605469 11.0625 11.601562 11.1875 11.601562 11.308594 L 11.601562 15.640625 C 12.277344 15.675781 12.945312 15.839844 13.558594 16.125 C 13.757812 16.21875 13.980469 16.335938 14.15625 16.523438 C 14.351562 16.738281 14.441406 17.011719 14.398438 17.257812 C 14.363281 17.449219 14.246094 17.632812 14.070312 17.773438 C 13.917969 17.894531 13.742188 17.972656 13.574219 18.042969 C 12.757812 18.371094 11.878906 18.539062 11.003906 18.539062 C 10.382812 18.539062 9.761719 18.457031 9.160156 18.285156 C 8.933594 18.222656 8.671875 18.136719 8.445312 17.984375 C 8.191406 17.808594 8.023438 17.566406 7.976562 17.308594 C 7.90625 16.957031 8.070312 16.554688 8.386719 16.285156 C 8.675781 16.042969 9.035156 15.929688 9.347656 15.847656 C 9.828125 15.722656 10.316406 15.644531 10.8125 15.617188 L 10.8125 10.589844 C 10.171875 10.570312 9.480469 10.515625 8.792969 10.390625 C 8.105469 10.265625 7.421875 10.074219 6.789062 9.789062 C 6.652344 9.726562 6.652344 9.726562 7 8.617188 C 7.019531 8.558594 7.03125 8.519531 7.035156 8.507812 L 7.964844 5.375 C 7.972656 5.347656 8 5.238281 8.03125 5.105469 C 8.507812 3.179688 8.578125 3.175781 8.71875 3.164062 C 8.765625 3.160156 9.933594 3.0625 11.109375 3.0625 C 12.304688 3.0625 13.898438 3.359375 13.910156 3.363281 C 14.035156 3.386719 14.082031 3.4375 14.277344 4.457031 C 14.292969 4.53125 14.300781 4.585938 14.304688 4.601562 L 14.710938 6.21875 C 14.757812 6.414062 14.824219 6.59375 14.886719 6.769531 C 14.992188 7.074219 15.101562 7.390625 15.128906 7.761719 C 15.167969 8.238281 15.308594 8.734375 15.445312 9.214844 C 15.503906 9.414062 15.558594 9.617188 15.609375 9.8125 " fill-opacity="1" fill-rule="nonzero"/></g></svg>