<svg xmlns="http://www.w3.org/2000/svg" xmlns:xlink="http://www.w3.org/1999/xlink" width="34" zoomAndPan="magnify" viewBox="0 0 25.5 24.75" height="33" preserveAspectRatio="xMidYMid meet" version="1.0"><defs><clipPath id="316d772601"><path d="M 0.40625 0.214844 L 24.460938 0.214844 L 24.460938 24.269531 L 0.40625 24.269531 Z M 0.40625 0.214844 " clip-rule="nonzero"/></clipPath><clipPath id="29b5b35290"><path d="M 6.96875 4.851562 L 21.546875 4.851562 L 21.546875 19.429688 L 6.96875 19.429688 Z M 6.96875 4.851562 " clip-rule="nonzero"/></clipPath></defs><g clip-path="url(#316d772601)"><path fill="#000000" d="M 12.433594 24.269531 C 5.789062 24.269531 0.40625 18.847656 0.40625 12.242188 C 0.40625 5.632812 5.789062 0.214844 12.433594 0.214844 C 19.078125 0.214844 24.460938 5.597656 24.460938 12.242188 C 24.460938 18.886719 19.042969 24.269531 12.433594 24.269531 Z M 12.433594 0.957031 C 6.199219 0.957031 1.148438 6.003906 1.148438 12.242188 C 1.148438 18.476562 6.199219 23.527344 12.433594 23.527344 C 18.671875 23.527344 23.71875 18.476562 23.71875 12.242188 C 23.71875 6.003906 18.632812 0.957031 12.433594 0.957031 Z M 12.433594 0.957031 " fill-opacity="1" fill-rule="nonzero"/></g><g clip-path="url(#29b5b35290)"><path fill="#000000" d="M 11.40625 4.851562 C 9.222656 4.851562 7.25 6.171875 7.25 6.171875 L 6.96875 6.351562 L 6.96875 17.933594 L 7.25 18.113281 C 7.25 18.113281 9.222656 19.429688 11.40625 19.429688 C 13.585938 19.429688 15.558594 18.113281 15.558594 18.113281 L 15.839844 17.933594 L 15.839844 11.304688 C 17.4375 11.195312 19.082031 11.070312 20.054688 10.996094 C 20.890625 10.933594 21.542969 10.25 21.542969 9.445312 C 21.542969 8.59375 20.808594 7.890625 19.921875 7.890625 L 15.839844 7.890625 L 15.839844 6.351562 L 15.558594 6.171875 C 15.558594 6.171875 13.585938 4.851562 11.40625 4.851562 Z M 11.40625 6.066406 C 12.820312 6.066406 14.199219 6.828125 14.574219 7.039062 L 14.574219 7.890625 L 11.40625 7.890625 C 10.363281 7.890625 9.503906 8.714844 9.503906 9.710938 C 9.503906 10.710938 10.363281 11.535156 11.40625 11.535156 C 12.046875 11.535156 13.261719 11.46875 14.574219 11.386719 L 14.574219 17.242188 C 14.199219 17.457031 12.820312 18.214844 11.40625 18.214844 C 9.988281 18.214844 8.613281 17.457031 8.238281 17.242188 L 8.238281 7.039062 C 8.613281 6.828125 9.988281 6.066406 11.40625 6.066406 Z M 11.40625 9.105469 L 19.921875 9.105469 C 20.125 9.105469 20.277344 9.25 20.277344 9.445312 C 20.277344 9.632812 20.140625 9.769531 19.953125 9.785156 C 17.878906 9.945312 12.789062 10.320312 11.40625 10.320312 C 11.046875 10.320312 10.769531 10.054688 10.769531 9.710938 C 10.769531 9.371094 11.046875 9.105469 11.40625 9.105469 Z M 11.40625 12.75 C 11.117188 12.75 10.863281 12.832031 10.632812 13 C 10.40625 13.167969 10.257812 13.382812 10.183594 13.648438 C 10.109375 13.914062 10.125 14.175781 10.234375 14.429688 C 10.34375 14.683594 10.523438 14.878906 10.769531 15.015625 L 10.769531 16.394531 L 12.039062 16.394531 L 12.039062 15.015625 C 12.285156 14.878906 12.464844 14.683594 12.574219 14.429688 C 12.683594 14.175781 12.703125 13.914062 12.628906 13.648438 C 12.554688 13.382812 12.402344 13.167969 12.175781 13 C 11.949219 12.832031 11.691406 12.75 11.40625 12.75 Z M 11.40625 12.75 " fill-opacity="1" fill-rule="nonzero"/></g></svg>