<svg xmlns="http://www.w3.org/2000/svg" xmlns:xlink="http://www.w3.org/1999/xlink" width="30" zoomAndPan="magnify" viewBox="0 0 22.5 22.5" height="30" preserveAspectRatio="xMidYMid meet" version="1.0"><defs><clipPath id="9f6e72e81f"><path d="M 0.257812 0.222656 L 21.488281 0.222656 L 21.488281 21.453125 L 0.257812 21.453125 Z M 0.257812 0.222656 " clip-rule="nonzero"/></clipPath><clipPath id="3d6ff072b9"><path d="M 3.257812 5.269531 L 18.699219 5.269531 L 18.699219 16.207031 L 3.257812 16.207031 Z M 3.257812 5.269531 " clip-rule="nonzero"/></clipPath></defs><g clip-path="url(#9f6e72e81f)"><path fill="#000000" d="M 10.871094 21.453125 C 5.007812 21.453125 0.257812 16.671875 0.257812 10.839844 C 0.257812 5.007812 5.007812 0.222656 10.871094 0.222656 C 16.738281 0.222656 21.488281 4.972656 21.488281 10.839844 C 21.488281 16.703125 16.703125 21.453125 10.871094 21.453125 Z M 10.871094 0.878906 C 5.367188 0.878906 0.914062 5.335938 0.914062 10.839844 C 0.914062 16.34375 5.367188 20.800781 10.871094 20.800781 C 16.378906 20.800781 20.832031 16.34375 20.832031 10.839844 C 20.832031 5.335938 16.34375 0.878906 10.871094 0.878906 Z M 10.871094 0.878906 " fill-opacity="1" fill-rule="nonzero"/></g><g clip-path="url(#3d6ff072b9)"><path fill="#11171d" d="M 18.464844 13.179688 L 17.929688 13.179688 C 18.011719 13.09375 18.082031 12.996094 18.136719 12.890625 C 18.292969 12.585938 18.289062 12.273438 18.289062 11.941406 C 18.289062 11.671875 18.292969 11.398438 18.289062 11.128906 C 18.28125 10.648438 18.03125 10.207031 17.609375 9.957031 C 17.40625 9.835938 17.199219 9.789062 16.984375 9.773438 L 16.984375 7.261719 C 16.984375 7.066406 16.988281 6.867188 16.984375 6.671875 C 16.972656 5.929688 16.367188 5.320312 15.597656 5.289062 C 15.160156 5.273438 14.714844 5.289062 14.277344 5.289062 L 6.460938 5.289062 C 6.019531 5.289062 5.59375 5.433594 5.300781 5.765625 C 5.023438 6.085938 4.953125 6.453125 4.953125 6.855469 L 4.953125 9.769531 C 4.234375 9.84375 3.679688 10.414062 3.667969 11.132812 C 3.664062 11.410156 3.667969 11.691406 3.667969 11.96875 C 3.667969 12.304688 3.671875 12.621094 3.84375 12.925781 C 3.890625 13.015625 3.953125 13.097656 4.019531 13.171875 C 3.851562 13.171875 3.683594 13.171875 3.519531 13.179688 C 3.511719 13.179688 3.5 13.179688 3.492188 13.179688 C 3.367188 13.179688 3.257812 13.28125 3.257812 13.40625 L 3.257812 14.355469 C 3.257812 14.480469 3.367188 14.582031 3.492188 14.582031 L 4.515625 14.582031 L 4.515625 15.34375 C 4.515625 15.488281 4.5 15.640625 4.546875 15.78125 C 4.648438 16.070312 4.914062 16.195312 5.207031 16.207031 C 5.21875 16.207031 5.230469 16.207031 5.246094 16.207031 C 5.261719 16.207031 5.277344 16.203125 5.292969 16.203125 C 5.609375 16.167969 5.859375 15.941406 5.886719 15.625 C 5.894531 15.511719 5.886719 15.394531 5.886719 15.28125 L 5.886719 14.582031 L 16.070312 14.582031 L 16.070312 15.34375 C 16.070312 15.488281 16.058594 15.640625 16.105469 15.78125 C 16.203125 16.070312 16.46875 16.195312 16.761719 16.207031 C 16.777344 16.207031 16.789062 16.207031 16.800781 16.207031 C 16.816406 16.207031 16.832031 16.203125 16.847656 16.203125 C 17.164062 16.167969 17.414062 15.941406 17.441406 15.625 C 17.453125 15.511719 17.445312 15.394531 17.445312 15.28125 L 17.445312 14.589844 C 17.777344 14.59375 18.109375 14.59375 18.441406 14.582031 C 18.449219 14.582031 18.457031 14.582031 18.464844 14.582031 C 18.539062 14.582031 18.59375 14.558594 18.628906 14.519531 C 18.671875 14.480469 18.699219 14.429688 18.699219 14.355469 L 18.699219 13.40625 C 18.699219 13.285156 18.59375 13.179688 18.464844 13.179688 Z M 16.976562 14.585938 L 16.976562 15.117188 C 16.976562 15.28125 17.066406 15.742188 16.800781 15.753906 C 16.660156 15.753906 16.546875 15.726562 16.539062 15.570312 C 16.53125 15.441406 16.539062 15.3125 16.539062 15.1875 L 16.539062 14.578125 L 16.976562 14.578125 Z M 17.257812 14.132812 C 17.242188 14.128906 17.226562 14.125 17.210938 14.125 L 16.304688 14.125 C 16.289062 14.125 16.273438 14.128906 16.257812 14.132812 L 5.703125 14.132812 C 5.6875 14.128906 5.671875 14.125 5.65625 14.125 L 4.75 14.125 C 4.730469 14.125 4.714844 14.128906 4.699219 14.132812 L 4.105469 14.132812 C 3.980469 14.132812 3.851562 14.125 3.726562 14.121094 L 3.726562 13.632812 L 17.851562 13.632812 C 17.976562 13.632812 18.105469 13.640625 18.234375 13.640625 L 18.234375 14.132812 Z M 5.421875 14.582031 L 5.421875 15.117188 C 5.421875 15.28125 5.511719 15.742188 5.246094 15.753906 C 5.105469 15.753906 4.992188 15.726562 4.980469 15.570312 C 4.972656 15.441406 4.980469 15.3125 4.980469 15.1875 L 4.980469 14.578125 L 5.421875 14.578125 Z M 4.503906 12.996094 C 4.222656 12.785156 4.136719 12.480469 4.136719 12.15625 L 4.136719 11.25 C 4.136719 10.925781 4.210938 10.628906 4.488281 10.414062 C 4.632812 10.296875 4.789062 10.25 4.953125 10.226562 C 5.027344 10.21875 5.105469 10.214844 5.1875 10.210938 C 5.242188 10.210938 5.300781 10.210938 5.359375 10.210938 L 16.75 10.210938 C 16.792969 10.210938 16.835938 10.210938 16.878906 10.210938 C 16.914062 10.210938 16.949219 10.214844 16.984375 10.21875 C 17.378906 10.265625 17.703125 10.539062 17.796875 10.917969 C 17.859375 11.164062 17.820312 11.449219 17.820312 11.699219 C 17.820312 11.945312 17.859375 12.230469 17.796875 12.476562 C 17.703125 12.863281 17.367188 13.140625 16.960938 13.179688 L 5.328125 13.179688 C 5.214844 13.179688 5.101562 13.179688 4.984375 13.175781 C 4.8125 13.160156 4.648438 13.101562 4.503906 12.996094 Z M 5.417969 6.6875 C 5.425781 6.167969 5.839844 5.75 6.382812 5.742188 C 6.828125 5.734375 7.273438 5.742188 7.71875 5.742188 L 15.441406 5.742188 C 15.777344 5.742188 16.09375 5.824219 16.3125 6.09375 C 16.515625 6.339844 16.515625 6.621094 16.515625 6.917969 L 16.515625 9.757812 L 16.222656 9.757812 C 16.222656 9.238281 16.222656 8.71875 16.222656 8.199219 C 16.21875 7.722656 15.929688 7.277344 15.429688 7.171875 C 15.214844 7.128906 14.976562 7.148438 14.761719 7.148438 L 12.429688 7.148438 C 12.210938 7.148438 11.988281 7.144531 11.769531 7.148438 C 11.441406 7.152344 11.15625 7.296875 10.96875 7.519531 C 10.835938 7.347656 10.644531 7.222656 10.410156 7.171875 C 10.195312 7.128906 9.957031 7.148438 9.742188 7.148438 L 7.410156 7.148438 C 7.191406 7.148438 6.96875 7.144531 6.75 7.148438 C 6.179688 7.160156 5.730469 7.585938 5.714844 8.136719 C 5.703125 8.675781 5.710938 9.21875 5.714844 9.757812 C 5.617188 9.757812 5.519531 9.757812 5.417969 9.757812 L 5.417969 7.363281 C 5.417969 7.140625 5.417969 6.914062 5.417969 6.6875 Z M 6.214844 7.957031 C 6.292969 7.742188 6.507812 7.601562 6.742188 7.597656 C 6.898438 7.597656 7.058594 7.597656 7.21875 7.597656 L 9.457031 7.597656 C 9.683594 7.597656 9.914062 7.597656 10.140625 7.597656 C 10.472656 7.601562 10.730469 7.824219 10.734375 8.148438 C 10.722656 8.6875 10.730469 9.222656 10.734375 9.757812 L 7.34375 9.757812 C 6.957031 9.757812 6.570312 9.757812 6.183594 9.757812 L 6.183594 8.269531 C 6.183594 8.160156 6.175781 8.058594 6.214844 7.957031 Z M 11.203125 8.1875 C 11.203125 8.109375 11.207031 8.03125 11.234375 7.957031 C 11.3125 7.742188 11.527344 7.601562 11.761719 7.597656 C 11.917969 7.597656 12.078125 7.597656 12.238281 7.597656 L 14.476562 7.597656 C 14.703125 7.597656 14.933594 7.597656 15.160156 7.597656 C 15.492188 7.601562 15.75 7.824219 15.753906 8.152344 C 15.761719 8.6875 15.757812 9.222656 15.753906 9.757812 L 11.203125 9.757812 L 11.203125 8.269531 C 11.203125 8.242188 11.203125 8.214844 11.203125 8.1875 Z M 11.203125 8.1875 " fill-opacity="1" fill-rule="nonzero"/></g></svg>