<svg xmlns="http://www.w3.org/2000/svg" xmlns:xlink="http://www.w3.org/1999/xlink" width="29" zoomAndPan="magnify" viewBox="0 0 21.75 22.5" height="30" preserveAspectRatio="xMidYMid meet" version="1.0"><defs><clipPath id="69e3ebae9d"><path d="M 0.261719 0.226562 L 21.285156 0.226562 L 21.285156 21.246094 L 0.261719 21.246094 Z M 0.261719 0.226562 " clip-rule="nonzero"/></clipPath><clipPath id="2e9a36c3f3"><path d="M 4.0625 9 L 6 9 L 6 11 L 4.0625 11 Z M 4.0625 9 " clip-rule="nonzero"/></clipPath><clipPath id="1867861e0a"><path d="M 4.0625 4 L 9 4 L 9 16 L 4.0625 16 Z M 4.0625 4 " clip-rule="nonzero"/></clipPath><clipPath id="cd6630fc81"><path d="M 12 3.890625 L 13 3.890625 L 13 17 L 12 17 Z M 12 3.890625 " clip-rule="nonzero"/></clipPath><clipPath id="90c1dd53f4"><path d="M 7 3.890625 L 17.441406 3.890625 L 17.441406 17 L 7 17 Z M 7 3.890625 " clip-rule="nonzero"/></clipPath><clipPath id="121d3ff183"><path d="M 8 15 L 10 15 L 10 17.902344 L 8 17.902344 Z M 8 15 " clip-rule="nonzero"/></clipPath><clipPath id="4be61cd077"><path d="M 15 15 L 17 15 L 17 17.902344 L 15 17.902344 Z M 15 15 " clip-rule="nonzero"/></clipPath></defs><g clip-path="url(#69e3ebae9d)"><path fill="#000000" d="M 10.773438 21.246094 C 4.964844 21.246094 0.261719 16.511719 0.261719 10.738281 C 0.261719 4.964844 4.964844 0.226562 10.773438 0.226562 C 16.578125 0.226562 21.285156 4.929688 21.285156 10.738281 C 21.285156 16.542969 16.546875 21.246094 10.773438 21.246094 Z M 10.773438 0.875 C 5.324219 0.875 0.910156 5.289062 0.910156 10.738281 C 0.910156 16.1875 5.324219 20.597656 10.773438 20.597656 C 16.222656 20.597656 20.632812 16.1875 20.632812 10.738281 C 20.632812 5.289062 16.191406 0.875 10.773438 0.875 Z M 10.773438 0.875 " fill-opacity="1" fill-rule="nonzero"/></g><path fill="#000000" d="M 13.542969 10.636719 C 13.414062 10.636719 13.308594 10.527344 13.308594 10.394531 L 13.308594 9.894531 C 13.308594 9.761719 13.414062 9.652344 13.542969 9.652344 C 13.671875 9.652344 13.777344 9.761719 13.777344 9.894531 L 13.777344 10.394531 C 13.777344 10.527344 13.671875 10.636719 13.542969 10.636719 Z M 13.542969 10.636719 " fill-opacity="1" fill-rule="nonzero"/><g clip-path="url(#2e9a36c3f3)"><path fill="#000000" d="M 5.160156 10.636719 C 5.03125 10.636719 4.925781 10.527344 4.925781 10.394531 L 4.925781 9.894531 C 4.925781 9.761719 5.03125 9.652344 5.160156 9.652344 C 5.289062 9.652344 5.394531 9.761719 5.394531 9.894531 L 5.394531 10.394531 C 5.394531 10.527344 5.289062 10.636719 5.160156 10.636719 Z M 5.160156 10.636719 " fill-opacity="1" fill-rule="nonzero"/></g><g clip-path="url(#1867861e0a)"><path fill="#000000" d="M 4.695312 15.558594 C 4.546875 15.558594 4.398438 15.507812 4.285156 15.414062 C 4.152344 15.300781 4.078125 15.144531 4.078125 14.976562 L 4.078125 5.476562 C 4.078125 5.15625 4.355469 4.890625 4.695312 4.890625 L 7.953125 4.890625 C 8.082031 4.890625 8.1875 5 8.1875 5.132812 L 8.1875 14.65625 C 8.1875 14.769531 8.109375 14.871094 8 14.890625 L 4.828125 15.546875 C 4.785156 15.554688 4.742188 15.5625 4.695312 15.5625 Z M 4.695312 5.375 C 4.613281 5.375 4.546875 5.429688 4.546875 5.476562 L 4.546875 14.976562 C 4.546875 15.003906 4.566406 15.027344 4.582031 15.039062 C 4.613281 15.066406 4.667969 15.085938 4.734375 15.074219 L 7.71875 14.457031 L 7.71875 5.375 Z M 7.953125 14.65625 Z M 7.953125 14.65625 " fill-opacity="1" fill-rule="nonzero"/></g><g clip-path="url(#cd6630fc81)"><path fill="#000000" d="M 12.429688 16.398438 C 12.300781 16.398438 12.195312 16.292969 12.195312 16.160156 L 12.195312 4.132812 C 12.195312 4 12.300781 3.890625 12.429688 3.890625 C 12.5625 3.890625 12.667969 4 12.667969 4.132812 L 12.667969 16.160156 C 12.667969 16.292969 12.5625 16.398438 12.429688 16.398438 Z M 12.429688 16.398438 " fill-opacity="1" fill-rule="nonzero"/></g><g clip-path="url(#90c1dd53f4)"><path fill="#000000" d="M 16.222656 16.398438 L 8.921875 16.398438 C 8.257812 16.398438 7.71875 15.847656 7.71875 15.164062 L 7.71875 4.980469 C 7.71875 4.378906 8.191406 3.890625 8.777344 3.890625 L 16.363281 3.890625 C 16.949219 3.890625 17.425781 4.378906 17.425781 4.980469 L 17.425781 15.164062 C 17.425781 15.847656 16.886719 16.398438 16.222656 16.398438 Z M 8.777344 4.375 C 8.453125 4.375 8.1875 4.644531 8.1875 4.980469 L 8.1875 15.164062 C 8.1875 15.578125 8.515625 15.917969 8.921875 15.917969 L 16.222656 15.917969 C 16.625 15.917969 16.953125 15.578125 16.953125 15.164062 L 16.953125 4.980469 C 16.953125 4.644531 16.691406 4.375 16.363281 4.375 Z M 8.777344 4.375 " fill-opacity="1" fill-rule="nonzero"/></g><g clip-path="url(#121d3ff183)"><path fill="#000000" d="M 9.070312 17.902344 L 8.511719 17.902344 C 8.382812 17.902344 8.277344 17.796875 8.277344 17.664062 L 8.277344 16.160156 C 8.277344 16.027344 8.382812 15.917969 8.511719 15.917969 C 8.640625 15.917969 8.746094 16.027344 8.746094 16.160156 L 8.746094 17.421875 L 8.878906 17.421875 L 9.121094 16.113281 C 9.144531 15.980469 9.269531 15.894531 9.394531 15.921875 C 9.523438 15.945312 9.609375 16.074219 9.582031 16.203125 L 9.304688 17.707031 C 9.28125 17.820312 9.183594 17.902344 9.070312 17.902344 Z M 9.070312 17.902344 " fill-opacity="1" fill-rule="nonzero"/></g><g clip-path="url(#4be61cd077)"><path fill="#000000" d="M 16.628906 17.902344 L 16.070312 17.902344 C 15.957031 17.902344 15.859375 17.820312 15.839844 17.707031 L 15.558594 16.203125 C 15.535156 16.074219 15.617188 15.945312 15.746094 15.921875 C 15.875 15.898438 15.996094 15.980469 16.019531 16.113281 L 16.265625 17.421875 L 16.394531 17.421875 L 16.394531 16.160156 C 16.394531 16.027344 16.5 15.917969 16.628906 15.917969 C 16.761719 15.917969 16.867188 16.027344 16.867188 16.160156 L 16.867188 17.664062 C 16.867188 17.796875 16.761719 17.902344 16.628906 17.902344 Z M 16.628906 17.902344 " fill-opacity="1" fill-rule="nonzero"/></g><path fill="#000000" d="M 10.472656 14.898438 L 9.910156 14.898438 C 9.78125 14.898438 9.675781 14.789062 9.675781 14.65625 C 9.675781 14.523438 9.78125 14.414062 9.910156 14.414062 L 10.472656 14.414062 C 10.601562 14.414062 10.707031 14.523438 10.707031 14.65625 C 10.707031 14.789062 10.601562 14.898438 10.472656 14.898438 Z M 10.472656 14.898438 " fill-opacity="1" fill-rule="nonzero"/><path fill="#000000" d="M 12.429688 13.367188 L 7.953125 13.367188 C 7.824219 13.367188 7.71875 13.257812 7.71875 13.125 C 7.71875 12.992188 7.824219 12.882812 7.953125 12.882812 L 12.429688 12.882812 C 12.5625 12.882812 12.667969 12.992188 12.667969 13.125 C 12.667969 13.257812 12.5625 13.367188 12.429688 13.367188 Z M 12.429688 13.367188 " fill-opacity="1" fill-rule="nonzero"/><path fill="#000000" d="M 10.960938 8.71875 L 9.066406 8.71875 C 8.945312 8.71875 8.847656 8.636719 8.832031 8.519531 C 8.816406 8.40625 8.886719 8.300781 9 8.269531 C 9.808594 8.03125 9.957031 7.832031 9.984375 7.777344 C 10.035156 7.671875 10.050781 7.589844 10.027344 7.542969 C 10.003906 7.496094 9.933594 7.480469 9.933594 7.480469 C 9.855469 7.46875 9.804688 7.394531 9.816406 7.316406 C 9.828125 7.238281 9.902344 7.183594 9.980469 7.195312 C 10 7.199219 10.1875 7.230469 10.277344 7.40625 C 10.34375 7.542969 10.332031 7.707031 10.238281 7.902344 C 10.222656 7.933594 10.203125 7.964844 10.179688 7.996094 L 11.03125 8.269531 C 11.144531 8.304688 11.210938 8.410156 11.195312 8.523438 C 11.175781 8.636719 11.078125 8.71875 10.957031 8.71875 Z M 9.4375 8.429688 L 10.585938 8.429688 L 10.011719 8.25 C 9.984375 8.238281 9.957031 8.21875 9.941406 8.195312 C 9.8125 8.277344 9.644531 8.355469 9.4375 8.429688 Z M 9.4375 8.429688 " fill-opacity="1" fill-rule="nonzero"/><path fill="#000000" d="M 11.050781 11.160156 L 9.15625 11.160156 C 9.039062 11.160156 8.9375 11.074219 8.921875 10.957031 C 8.90625 10.84375 8.976562 10.738281 9.089844 10.707031 C 9.898438 10.472656 10.050781 10.269531 10.074219 10.214844 C 10.125 10.113281 10.140625 10.027344 10.117188 9.980469 C 10.09375 9.933594 10.027344 9.921875 10.023438 9.921875 C 9.949219 9.90625 9.894531 9.832031 9.90625 9.753906 C 9.921875 9.675781 9.992188 9.621094 10.070312 9.632812 C 10.089844 9.636719 10.277344 9.671875 10.367188 9.847656 C 10.433594 9.980469 10.421875 10.148438 10.328125 10.339844 C 10.3125 10.375 10.292969 10.40625 10.269531 10.4375 L 11.125 10.707031 C 11.234375 10.742188 11.300781 10.847656 11.285156 10.960938 C 11.265625 11.074219 11.167969 11.160156 11.050781 11.160156 Z M 9.527344 10.871094 L 10.675781 10.871094 L 10.101562 10.6875 C 10.074219 10.679688 10.050781 10.660156 10.03125 10.636719 C 9.902344 10.71875 9.734375 10.792969 9.527344 10.871094 Z M 9.527344 10.871094 " fill-opacity="1" fill-rule="nonzero"/><path fill="#000000" d="M 12.347656 7.628906 L 8.011719 7.628906 C 7.933594 7.628906 7.871094 7.5625 7.871094 7.484375 C 7.871094 7.402344 7.933594 7.339844 8.011719 7.339844 L 12.347656 7.339844 C 12.425781 7.339844 12.488281 7.402344 12.488281 7.484375 C 12.488281 7.5625 12.425781 7.628906 12.347656 7.628906 Z M 12.347656 7.628906 " fill-opacity="1" fill-rule="nonzero"/><path fill="#000000" d="M 12.269531 10.027344 L 7.9375 10.027344 C 7.859375 10.027344 7.796875 9.964844 7.796875 9.882812 C 7.796875 9.804688 7.859375 9.738281 7.9375 9.738281 L 12.273438 9.738281 C 12.351562 9.738281 12.414062 9.804688 12.414062 9.882812 C 12.414062 9.964844 12.351562 10.027344 12.273438 10.027344 Z M 12.269531 10.027344 " fill-opacity="1" fill-rule="nonzero"/></svg>