<svg xmlns="http://www.w3.org/2000/svg" xmlns:xlink="http://www.w3.org/1999/xlink" width="11" zoomAndPan="magnify" viewBox="0 0 8.25 9" height="12" preserveAspectRatio="xMidYMid meet" version="1.0"><defs><clipPath id="0794318a53"><path d="M 0.207031 4 L 7.5 4 L 7.5 6 L 0.207031 6 Z M 0.207031 4 " clip-rule="nonzero"/></clipPath><clipPath id="d32dd363d3"><path d="M 0.207031 5 L 7.5 5 L 7.5 8 L 0.207031 8 Z M 0.207031 5 " clip-rule="nonzero"/></clipPath><clipPath id="9dcfafd2a1"><path d="M 1 7 L 3 7 L 3 8.101562 L 1 8.101562 Z M 1 7 " clip-rule="nonzero"/></clipPath><clipPath id="e823c03945"><path d="M 5 7 L 7 7 L 7 8.101562 L 5 8.101562 Z M 5 7 " clip-rule="nonzero"/></clipPath><clipPath id="c14776da5c"><path d="M 5 0.804688 L 7.5 0.804688 L 7.5 5 L 5 5 Z M 5 0.804688 " clip-rule="nonzero"/></clipPath></defs><g clip-path="url(#0794318a53)"><path fill="#000000" d="M 7.164062 4.5 L 0.671875 4.5 C 0.417969 4.5 0.210938 4.710938 0.210938 4.964844 C 0.210938 5.222656 0.417969 5.433594 0.671875 5.433594 L 7.164062 5.433594 C 7.421875 5.433594 7.628906 5.222656 7.628906 4.964844 C 7.628906 4.710938 7.421875 4.5 7.164062 4.5 Z M 7.164062 5.121094 L 0.671875 5.121094 C 0.589844 5.121094 0.519531 5.050781 0.519531 4.964844 C 0.519531 4.878906 0.589844 4.8125 0.671875 4.8125 L 7.164062 4.8125 C 7.25 4.8125 7.320312 4.878906 7.320312 4.964844 C 7.320312 5.050781 7.25 5.121094 7.164062 5.121094 Z M 7.164062 5.121094 " fill-opacity="1" fill-rule="nonzero"/></g><g clip-path="url(#d32dd363d3)"><path fill="#000000" d="M 7.207031 5.128906 C 7.125 5.105469 7.039062 5.152344 7.015625 5.234375 L 6.589844 6.730469 C 6.496094 7.0625 6.191406 7.296875 5.847656 7.296875 L 1.992188 7.296875 C 1.648438 7.296875 1.34375 7.0625 1.246094 6.730469 L 0.820312 5.234375 C 0.796875 5.152344 0.714844 5.105469 0.632812 5.128906 C 0.546875 5.152344 0.5 5.238281 0.523438 5.320312 L 0.949219 6.816406 C 1.082031 7.28125 1.511719 7.605469 1.992188 7.605469 L 5.847656 7.605469 C 6.328125 7.605469 6.753906 7.28125 6.886719 6.816406 L 7.3125 5.320312 C 7.335938 5.238281 7.289062 5.152344 7.207031 5.128906 Z M 7.207031 5.128906 " fill-opacity="1" fill-rule="nonzero"/></g><path fill="#000000" d="M 1.992188 6.675781 C 1.921875 6.675781 1.863281 6.628906 1.84375 6.5625 L 1.640625 5.855469 C 1.617188 5.773438 1.535156 5.726562 1.449219 5.75 C 1.367188 5.773438 1.320312 5.859375 1.34375 5.941406 L 1.546875 6.648438 C 1.601562 6.847656 1.785156 6.984375 1.992188 6.984375 C 2.078125 6.984375 2.144531 6.914062 2.144531 6.828125 C 2.144531 6.742188 2.078125 6.675781 1.992188 6.675781 Z M 1.992188 6.675781 " fill-opacity="1" fill-rule="nonzero"/><g clip-path="url(#9dcfafd2a1)"><path fill="#000000" d="M 2.289062 7.3125 C 2.210938 7.273438 2.117188 7.304688 2.082031 7.382812 L 1.769531 8 C 1.734375 8.078125 1.765625 8.171875 1.839844 8.210938 C 1.863281 8.222656 1.886719 8.226562 1.910156 8.226562 C 1.964844 8.226562 2.019531 8.195312 2.046875 8.140625 L 2.355469 7.519531 C 2.394531 7.441406 2.363281 7.351562 2.289062 7.3125 Z M 2.289062 7.3125 " fill-opacity="1" fill-rule="nonzero"/></g><g clip-path="url(#e823c03945)"><path fill="#000000" d="M 6.066406 8.003906 L 5.757812 7.382812 C 5.71875 7.304688 5.625 7.273438 5.550781 7.3125 C 5.472656 7.351562 5.441406 7.441406 5.480469 7.519531 L 5.789062 8.140625 C 5.816406 8.195312 5.871094 8.226562 5.929688 8.226562 C 5.953125 8.226562 5.976562 8.222656 5.996094 8.210938 C 6.074219 8.171875 6.105469 8.078125 6.066406 8.003906 Z M 6.066406 8.003906 " fill-opacity="1" fill-rule="nonzero"/></g><g clip-path="url(#c14776da5c)"><path fill="#000000" d="M 6.417969 0.800781 C 6.261719 0.800781 6.113281 0.863281 6 0.976562 L 5.511719 1.46875 C 5.449219 1.53125 5.449219 1.628906 5.511719 1.6875 C 5.570312 1.75 5.667969 1.75 5.730469 1.6875 L 6.21875 1.195312 C 6.273438 1.140625 6.34375 1.113281 6.421875 1.113281 C 6.574219 1.113281 6.703125 1.238281 6.703125 1.394531 L 6.703125 4.65625 C 6.703125 4.742188 6.769531 4.8125 6.855469 4.8125 C 6.941406 4.8125 7.011719 4.742188 7.011719 4.65625 L 7.011719 1.394531 C 7.011719 1.066406 6.746094 0.800781 6.417969 0.800781 Z M 6.417969 0.800781 " fill-opacity="1" fill-rule="nonzero"/></g><path fill="#000000" d="M 5.882812 1.625 L 5.574219 1.3125 C 5.539062 1.277344 5.488281 1.261719 5.441406 1.269531 L 4.667969 1.398438 C 4.609375 1.40625 4.5625 1.445312 4.546875 1.503906 C 4.527344 1.558594 4.542969 1.617188 4.582031 1.660156 L 5.507812 2.617188 C 5.539062 2.648438 5.578125 2.664062 5.621094 2.664062 C 5.632812 2.664062 5.648438 2.664062 5.664062 2.660156 C 5.71875 2.644531 5.761719 2.597656 5.769531 2.539062 L 5.925781 1.765625 C 5.9375 1.714844 5.921875 1.660156 5.882812 1.625 Z M 5.523438 2.191406 L 5.007812 1.65625 L 5.410156 1.589844 L 5.605469 1.785156 Z M 5.523438 2.191406 " fill-opacity="1" fill-rule="nonzero"/><path fill="#000000" d="M 3.875 2.683594 C 3.8125 2.621094 3.714844 2.621094 3.65625 2.683594 L 3.347656 2.992188 C 3.285156 3.054688 3.285156 3.152344 3.347656 3.214844 C 3.375 3.242188 3.414062 3.257812 3.457031 3.257812 C 3.496094 3.257812 3.535156 3.242188 3.566406 3.214844 L 3.875 2.902344 C 3.933594 2.84375 3.933594 2.742188 3.875 2.683594 Z M 3.875 2.683594 " fill-opacity="1" fill-rule="nonzero"/><path fill="#000000" d="M 4.492188 3.304688 C 4.433594 3.242188 4.332031 3.242188 4.273438 3.304688 L 3.964844 3.613281 C 3.902344 3.675781 3.902344 3.773438 3.964844 3.835938 C 3.996094 3.863281 4.035156 3.878906 4.074219 3.878906 C 4.113281 3.878906 4.152344 3.863281 4.183594 3.835938 L 4.492188 3.523438 C 4.550781 3.464844 4.550781 3.363281 4.492188 3.304688 Z M 4.492188 3.304688 " fill-opacity="1" fill-rule="nonzero"/><path fill="#000000" d="M 4.800781 2.371094 C 4.742188 2.3125 4.644531 2.3125 4.582031 2.371094 L 4.273438 2.683594 C 4.214844 2.742188 4.214844 2.84375 4.273438 2.902344 C 4.304688 2.933594 4.34375 2.949219 4.382812 2.949219 C 4.421875 2.949219 4.460938 2.933594 4.492188 2.902344 L 4.800781 2.59375 C 4.863281 2.53125 4.863281 2.433594 4.800781 2.371094 Z M 4.800781 2.371094 " fill-opacity="1" fill-rule="nonzero"/></svg>