<svg xmlns="http://www.w3.org/2000/svg" xmlns:xlink="http://www.w3.org/1999/xlink" width="7" zoomAndPan="magnify" viewBox="0 0 5.25 6" height="8" preserveAspectRatio="xMidYMid meet" version="1.0"><defs><clipPath id="e6f1aa6257"><path d="M 1 0.644531 L 4.59375 0.644531 L 4.59375 5.238281 L 1 5.238281 Z M 1 0.644531 " clip-rule="nonzero"/></clipPath><clipPath id="1ed92659a4"><path d="M 0.046875 0.644531 L 4 0.644531 L 4 5.238281 L 0.046875 5.238281 Z M 0.046875 0.644531 " clip-rule="nonzero"/></clipPath></defs><path fill="#000000" d="M 3.324219 2.546875 C 3.3125 2.523438 3.289062 2.511719 3.261719 2.511719 L 2.417969 2.511719 L 2.417969 1.398438 C 2.417969 1.359375 2.398438 1.335938 2.359375 1.328125 C 2.320312 1.316406 2.292969 1.332031 2.273438 1.363281 L 1.355469 3.144531 C 1.34375 3.171875 1.34375 3.195312 1.359375 3.21875 C 1.375 3.242188 1.394531 3.253906 1.421875 3.253906 L 2.265625 3.253906 L 2.265625 4.367188 C 2.265625 4.40625 2.285156 4.429688 2.324219 4.4375 C 2.332031 4.4375 2.335938 4.441406 2.34375 4.441406 C 2.375 4.441406 2.394531 4.425781 2.410156 4.398438 L 3.328125 2.617188 C 3.34375 2.59375 3.339844 2.570312 3.324219 2.546875 Z M 2.417969 4.050781 L 2.417969 3.179688 C 2.417969 3.128906 2.394531 3.105469 2.34375 3.105469 L 1.546875 3.105469 L 2.265625 1.714844 L 2.265625 2.585938 C 2.265625 2.632812 2.292969 2.660156 2.34375 2.660156 L 3.136719 2.660156 Z M 2.417969 4.050781 " fill-opacity="1" fill-rule="nonzero"/><g clip-path="url(#e6f1aa6257)"><path fill="#000000" d="M 4.210938 1.589844 C 4.269531 1.515625 4.296875 1.433594 4.292969 1.339844 C 4.289062 1.246094 4.25 1.164062 4.183594 1.097656 L 3.964844 0.890625 C 3.929688 0.855469 3.894531 0.855469 3.859375 0.890625 L 3.804688 0.941406 L 3.585938 0.730469 L 3.480469 0.835938 L 3.695312 1.046875 L 3.585938 1.152344 L 3.371094 0.941406 L 3.261719 1.046875 L 3.480469 1.257812 L 3.425781 1.308594 C 3.390625 1.34375 3.390625 1.378906 3.425781 1.414062 L 3.640625 1.625 C 3.777344 1.753906 3.925781 1.773438 4.09375 1.683594 C 4.355469 2.042969 4.488281 2.441406 4.484375 2.882812 C 4.484375 3.050781 4.464844 3.21875 4.421875 3.386719 C 4.378906 3.550781 4.316406 3.707031 4.234375 3.859375 C 4.152344 4.007812 4.050781 4.148438 3.933594 4.273438 C 3.8125 4.402344 3.683594 4.511719 3.535156 4.605469 C 3.390625 4.703125 3.234375 4.777344 3.070312 4.835938 C 2.902344 4.894531 2.734375 4.929688 2.558594 4.949219 C 2.382812 4.964844 2.207031 4.960938 2.035156 4.9375 C 1.859375 4.914062 1.691406 4.871094 1.527344 4.804688 L 1.472656 4.941406 C 1.644531 5.011719 1.824219 5.058594 2.011719 5.085938 C 2.199219 5.109375 2.386719 5.113281 2.574219 5.097656 C 2.761719 5.078125 2.945312 5.039062 3.121094 4.976562 C 3.296875 4.914062 3.464844 4.832031 3.621094 4.730469 C 3.777344 4.628906 3.917969 4.507812 4.046875 4.375 C 4.171875 4.238281 4.28125 4.089844 4.367188 3.929688 C 4.457031 3.769531 4.523438 3.597656 4.570312 3.421875 C 4.617188 3.246094 4.640625 3.066406 4.640625 2.882812 C 4.640625 2.40625 4.496094 1.976562 4.210938 1.589844 Z M 4.074219 1.519531 C 4.03125 1.5625 3.976562 1.582031 3.914062 1.582031 C 3.847656 1.582031 3.792969 1.5625 3.75 1.519531 L 3.585938 1.359375 L 3.914062 1.046875 L 4.074219 1.203125 C 4.121094 1.246094 4.140625 1.300781 4.140625 1.359375 C 4.140625 1.421875 4.121094 1.476562 4.074219 1.519531 Z M 4.074219 1.519531 " fill-opacity="1" fill-rule="nonzero"/></g><g clip-path="url(#1ed92659a4)"><path fill="#000000" d="M 2.34375 0.65625 C 2.039062 0.65625 1.746094 0.714844 1.464844 0.828125 C 1.183594 0.941406 0.933594 1.101562 0.71875 1.308594 C 0.503906 1.519531 0.335938 1.757812 0.222656 2.03125 C 0.105469 2.304688 0.046875 2.585938 0.046875 2.882812 C 0.0429688 3.359375 0.1875 3.789062 0.472656 4.175781 C 0.414062 4.246094 0.386719 4.332031 0.390625 4.425781 C 0.398438 4.519531 0.433594 4.597656 0.5 4.664062 L 0.71875 4.875 C 0.734375 4.890625 0.75 4.898438 0.773438 4.898438 C 0.792969 4.898438 0.8125 4.890625 0.828125 4.875 L 0.878906 4.824219 L 1.097656 5.03125 L 1.207031 4.929688 L 0.988281 4.71875 L 1.097656 4.613281 L 1.3125 4.824219 L 1.421875 4.71875 L 1.207031 4.507812 L 1.257812 4.457031 C 1.296875 4.421875 1.296875 4.386719 1.257812 4.351562 L 1.042969 4.140625 C 0.910156 4.011719 0.757812 3.992188 0.589844 4.078125 C 0.328125 3.71875 0.195312 3.320312 0.199219 2.882812 C 0.199219 2.605469 0.253906 2.34375 0.363281 2.085938 C 0.472656 1.832031 0.625 1.609375 0.828125 1.414062 C 1.027344 1.21875 1.257812 1.070312 1.523438 0.964844 C 1.785156 0.859375 2.058594 0.804688 2.34375 0.804688 C 2.625 0.804688 2.894531 0.855469 3.15625 0.960938 L 3.214844 0.820312 C 2.933594 0.710938 2.644531 0.65625 2.34375 0.65625 Z M 0.609375 4.246094 C 0.65625 4.203125 0.710938 4.179688 0.773438 4.179688 C 0.835938 4.179688 0.890625 4.203125 0.933594 4.246094 L 1.097656 4.402344 L 0.773438 4.71875 L 0.609375 4.5625 C 0.566406 4.515625 0.542969 4.464844 0.542969 4.402344 C 0.542969 4.339844 0.566406 4.289062 0.609375 4.246094 Z M 0.609375 4.246094 " fill-opacity="1" fill-rule="nonzero"/></g></svg>