<svg xmlns="http://www.w3.org/2000/svg" xmlns:xlink="http://www.w3.org/1999/xlink" width="15" zoomAndPan="magnify" viewBox="0 0 11.25 9" height="12" preserveAspectRatio="xMidYMid meet" version="1.0"><defs><clipPath id="78b5c83b5f"><path d="M 0.632812 0.628906 L 10.082031 0.628906 L 10.082031 7.378906 L 0.632812 7.378906 Z M 0.632812 0.628906 " clip-rule="nonzero"/></clipPath></defs><g clip-path="url(#78b5c83b5f)"><path fill="#11171d" d="M 9.941406 5.511719 L 9.613281 5.511719 C 9.660156 5.457031 9.703125 5.398438 9.738281 5.332031 C 9.835938 5.144531 9.832031 4.953125 9.832031 4.746094 C 9.832031 4.578125 9.835938 4.414062 9.832031 4.246094 C 9.828125 3.949219 9.675781 3.675781 9.414062 3.523438 C 9.292969 3.449219 9.164062 3.417969 9.035156 3.410156 L 9.035156 1.859375 C 9.035156 1.738281 9.035156 1.617188 9.035156 1.496094 C 9.027344 1.039062 8.65625 0.660156 8.1875 0.644531 C 7.917969 0.632812 7.644531 0.644531 7.375 0.644531 L 2.59375 0.644531 C 2.324219 0.644531 2.0625 0.730469 1.882812 0.9375 C 1.714844 1.132812 1.667969 1.363281 1.667969 1.609375 L 1.667969 3.40625 C 1.230469 3.453125 0.890625 3.804688 0.886719 4.246094 C 0.882812 4.417969 0.886719 4.59375 0.886719 4.765625 C 0.886719 4.96875 0.886719 5.167969 0.992188 5.355469 C 1.019531 5.410156 1.058594 5.460938 1.097656 5.503906 C 0.996094 5.503906 0.894531 5.507812 0.792969 5.511719 C 0.785156 5.511719 0.78125 5.511719 0.777344 5.511719 C 0.699219 5.511719 0.632812 5.574219 0.632812 5.648438 L 0.632812 6.238281 C 0.632812 6.3125 0.699219 6.375 0.777344 6.375 L 1.402344 6.375 L 1.402344 6.847656 C 1.402344 6.933594 1.394531 7.03125 1.421875 7.113281 C 1.484375 7.292969 1.648438 7.371094 1.824219 7.378906 C 1.832031 7.378906 1.839844 7.378906 1.847656 7.378906 C 1.859375 7.378906 1.867188 7.375 1.878906 7.375 C 2.070312 7.355469 2.222656 7.214844 2.242188 7.019531 C 2.246094 6.949219 2.242188 6.878906 2.242188 6.808594 L 2.242188 6.375 L 8.472656 6.375 L 8.472656 6.847656 C 8.472656 6.933594 8.464844 7.03125 8.496094 7.113281 C 8.554688 7.292969 8.71875 7.371094 8.898438 7.378906 C 8.90625 7.378906 8.914062 7.378906 8.921875 7.378906 C 8.929688 7.378906 8.941406 7.375 8.949219 7.375 C 9.144531 7.355469 9.296875 7.214844 9.3125 7.019531 C 9.320312 6.949219 9.316406 6.878906 9.316406 6.808594 L 9.316406 6.378906 C 9.519531 6.382812 9.722656 6.382812 9.925781 6.375 C 9.929688 6.375 9.933594 6.375 9.941406 6.375 C 9.984375 6.375 10.019531 6.359375 10.039062 6.335938 C 10.066406 6.3125 10.082031 6.28125 10.082031 6.238281 L 10.082031 5.648438 C 10.082031 5.574219 10.019531 5.511719 9.941406 5.511719 Z M 9.027344 6.378906 L 9.027344 6.703125 C 9.027344 6.804688 9.082031 7.089844 8.921875 7.097656 C 8.835938 7.097656 8.765625 7.082031 8.761719 6.984375 C 8.753906 6.90625 8.761719 6.828125 8.761719 6.75 L 8.761719 6.375 L 9.027344 6.375 Z M 9.199219 6.097656 C 9.191406 6.097656 9.183594 6.09375 9.171875 6.09375 L 8.617188 6.09375 C 8.605469 6.09375 8.597656 6.097656 8.589844 6.097656 L 2.128906 6.097656 C 2.121094 6.097656 2.109375 6.09375 2.101562 6.09375 L 1.542969 6.09375 C 1.535156 6.09375 1.523438 6.097656 1.515625 6.097656 L 1.152344 6.097656 C 1.074219 6.097656 0.996094 6.09375 0.917969 6.09375 L 0.917969 5.789062 L 9.566406 5.789062 C 9.640625 5.789062 9.71875 5.792969 9.796875 5.792969 L 9.796875 6.097656 Z M 1.957031 6.375 L 1.957031 6.703125 C 1.957031 6.804688 2.011719 7.089844 1.847656 7.097656 C 1.761719 7.097656 1.695312 7.082031 1.6875 6.984375 C 1.683594 6.90625 1.6875 6.828125 1.6875 6.75 L 1.6875 6.375 Z M 1.394531 5.398438 C 1.222656 5.269531 1.171875 5.078125 1.171875 4.878906 L 1.171875 4.320312 C 1.171875 4.121094 1.21875 3.9375 1.386719 3.804688 C 1.472656 3.734375 1.570312 3.703125 1.667969 3.6875 C 1.714844 3.683594 1.765625 3.679688 1.8125 3.679688 C 1.847656 3.679688 1.882812 3.679688 1.917969 3.679688 L 8.890625 3.679688 C 8.917969 3.679688 8.941406 3.679688 8.96875 3.679688 C 8.992188 3.679688 9.011719 3.679688 9.035156 3.683594 C 9.273438 3.714844 9.472656 3.882812 9.53125 4.117188 C 9.570312 4.265625 9.546875 4.441406 9.546875 4.597656 C 9.546875 4.75 9.570312 4.925781 9.53125 5.078125 C 9.472656 5.316406 9.265625 5.484375 9.019531 5.511719 L 1.902344 5.511719 C 1.832031 5.511719 1.761719 5.511719 1.691406 5.507812 C 1.582031 5.496094 1.484375 5.464844 1.394531 5.398438 Z M 1.957031 1.503906 C 1.960938 1.183594 2.214844 0.925781 2.546875 0.921875 C 2.816406 0.917969 3.089844 0.921875 3.363281 0.921875 L 8.089844 0.921875 C 8.296875 0.921875 8.488281 0.976562 8.621094 1.140625 C 8.746094 1.292969 8.746094 1.464844 8.746094 1.648438 L 8.746094 3.402344 L 8.566406 3.402344 C 8.566406 3.078125 8.566406 2.757812 8.566406 2.4375 C 8.566406 2.144531 8.386719 1.871094 8.082031 1.804688 C 7.949219 1.777344 7.804688 1.789062 7.671875 1.789062 L 6.246094 1.789062 C 6.113281 1.789062 5.976562 1.789062 5.839844 1.789062 C 5.640625 1.792969 5.46875 1.878906 5.351562 2.019531 C 5.269531 1.914062 5.152344 1.835938 5.007812 1.804688 C 4.878906 1.777344 4.734375 1.789062 4.601562 1.789062 L 3.175781 1.789062 C 3.039062 1.789062 2.90625 1.789062 2.769531 1.789062 C 2.421875 1.796875 2.144531 2.058594 2.136719 2.402344 C 2.128906 2.734375 2.132812 3.066406 2.136719 3.398438 C 2.074219 3.398438 2.015625 3.398438 1.957031 3.398438 L 1.957031 1.925781 C 1.957031 1.785156 1.953125 1.644531 1.957031 1.503906 Z M 2.441406 2.289062 C 2.492188 2.15625 2.621094 2.070312 2.765625 2.066406 C 2.863281 2.066406 2.960938 2.066406 3.058594 2.066406 L 4.425781 2.066406 C 4.566406 2.066406 4.707031 2.066406 4.84375 2.066406 C 5.046875 2.070312 5.207031 2.207031 5.207031 2.410156 C 5.199219 2.738281 5.207031 3.070312 5.207031 3.402344 L 3.132812 3.402344 C 2.894531 3.402344 2.660156 3.398438 2.421875 3.398438 L 2.421875 2.480469 C 2.421875 2.414062 2.417969 2.351562 2.441406 2.289062 Z M 5.496094 2.429688 C 5.496094 2.382812 5.496094 2.335938 5.515625 2.289062 C 5.5625 2.15625 5.691406 2.070312 5.835938 2.066406 C 5.933594 2.066406 6.03125 2.066406 6.128906 2.066406 L 7.496094 2.066406 C 7.636719 2.066406 7.777344 2.066406 7.917969 2.066406 C 8.121094 2.070312 8.277344 2.207031 8.28125 2.410156 C 8.285156 2.742188 8.28125 3.070312 8.28125 3.402344 L 5.496094 3.402344 L 5.496094 2.480469 C 5.496094 2.464844 5.496094 2.445312 5.496094 2.429688 Z M 5.496094 2.429688 " fill-opacity="1" fill-rule="nonzero"/></g></svg>