<svg xmlns="http://www.w3.org/2000/svg" xmlns:xlink="http://www.w3.org/1999/xlink" width="8" zoomAndPan="magnify" viewBox="0 0 6 6" height="8" preserveAspectRatio="xMidYMid meet" version="1.0"><defs><clipPath id="91424db734"><path d="M 2 1 L 5 1 L 5 5.949219 L 2 5.949219 Z M 2 1 " clip-rule="nonzero"/></clipPath><clipPath id="9b074fbbf9"><path d="M 0.464844 0.699219 L 5.714844 0.699219 L 5.714844 5.949219 L 0.464844 5.949219 Z M 0.464844 0.699219 " clip-rule="nonzero"/></clipPath></defs><g clip-path="url(#91424db734)"><path fill="#000000" d="M 2.515625 4.316406 C 2.398438 4.191406 2.335938 3.976562 2.332031 3.746094 L 2.066406 3.746094 C 2.066406 4.046875 2.160156 4.3125 2.308594 4.46875 C 2.453125 4.613281 2.679688 4.703125 2.984375 4.734375 L 2.984375 5.214844 L 3.195312 5.214844 L 3.195312 4.746094 C 3.316406 4.746094 3.4375 4.730469 3.554688 4.695312 C 3.671875 4.664062 3.773438 4.613281 3.867188 4.546875 C 3.957031 4.480469 4.03125 4.398438 4.085938 4.296875 C 4.140625 4.199219 4.167969 4.085938 4.167969 3.957031 C 4.167969 3.820312 4.140625 3.703125 4.082031 3.613281 C 4.027344 3.519531 3.953125 3.441406 3.863281 3.382812 C 3.769531 3.320312 3.667969 3.273438 3.550781 3.238281 C 3.433594 3.207031 3.316406 3.175781 3.195312 3.152344 L 3.195312 2.015625 C 3.378906 2.015625 3.53125 2.074219 3.644531 2.191406 C 3.757812 2.308594 3.820312 2.5 3.824219 2.695312 L 4.085938 2.695312 C 4.089844 2.566406 4.070312 2.417969 4.023438 2.3125 C 3.976562 2.207031 3.910156 2.117188 3.828125 2.042969 C 3.746094 1.964844 3.648438 1.90625 3.539062 1.867188 C 3.429688 1.828125 3.316406 1.804688 3.195312 1.804688 L 3.195312 1.433594 L 2.984375 1.433594 L 2.984375 1.808594 C 2.878906 1.8125 2.777344 1.828125 2.683594 1.859375 C 2.578125 1.894531 2.484375 1.945312 2.402344 2.011719 C 2.324219 2.082031 2.257812 2.160156 2.210938 2.257812 C 2.167969 2.351562 2.144531 2.457031 2.144531 2.578125 C 2.144531 2.714844 2.167969 2.832031 2.214844 2.921875 C 2.261719 3.011719 2.328125 3.082031 2.40625 3.140625 C 2.488281 3.199219 2.582031 3.246094 2.6875 3.28125 C 2.785156 3.308594 2.882812 3.332031 2.984375 3.355469 L 2.984375 4.527344 C 2.785156 4.5 2.628906 4.429688 2.515625 4.316406 Z M 3.195312 3.398438 C 3.277344 3.417969 3.359375 3.441406 3.441406 3.464844 C 3.527344 3.492188 3.601562 3.527344 3.667969 3.566406 C 3.738281 3.605469 3.792969 3.660156 3.835938 3.722656 C 3.878906 3.785156 3.902344 3.863281 3.902344 3.960938 C 3.902344 4.0625 3.882812 4.148438 3.839844 4.222656 C 3.800781 4.292969 3.746094 4.355469 3.679688 4.402344 C 3.613281 4.449219 3.539062 4.484375 3.453125 4.503906 C 3.371094 4.527344 3.285156 4.535156 3.195312 4.535156 Z M 2.800781 3.058594 C 2.726562 3.039062 2.660156 3.007812 2.601562 2.972656 C 2.542969 2.933594 2.496094 2.886719 2.460938 2.828125 C 2.425781 2.773438 2.410156 2.695312 2.410156 2.605469 C 2.410156 2.5 2.425781 2.414062 2.457031 2.335938 C 2.488281 2.261719 2.535156 2.199219 2.59375 2.152344 C 2.648438 2.105469 2.714844 2.070312 2.789062 2.046875 C 2.851562 2.03125 2.917969 2.019531 2.984375 2.019531 L 2.984375 3.105469 C 2.921875 3.089844 2.859375 3.074219 2.800781 3.058594 Z M 2.800781 3.058594 " fill-opacity="1" fill-rule="nonzero"/></g><g clip-path="url(#9b074fbbf9)"><path fill="#000000" d="M 3.089844 5.949219 C 4.539062 5.949219 5.714844 4.773438 5.714844 3.324219 C 5.714844 1.875 4.539062 0.699219 3.089844 0.699219 C 1.640625 0.699219 0.464844 1.875 0.464844 3.324219 C 0.464844 4.773438 1.640625 5.949219 3.089844 5.949219 Z M 3.089844 0.910156 C 4.421875 0.910156 5.503906 1.992188 5.503906 3.324219 C 5.503906 4.65625 4.421875 5.742188 3.089844 5.742188 C 1.757812 5.742188 0.675781 4.65625 0.675781 3.324219 C 0.675781 1.992188 1.757812 0.910156 3.089844 0.910156 Z M 3.089844 0.910156 " fill-opacity="1" fill-rule="nonzero"/></g></svg>