<svg xmlns="http://www.w3.org/2000/svg" xmlns:xlink="http://www.w3.org/1999/xlink" width="112" zoomAndPan="magnify" viewBox="0 0 84 62.999997" height="84" preserveAspectRatio="xMidYMid meet" version="1.0"><defs><filter x="0%" y="0%" width="100%" height="100%" id="2cabcbb786"><feColorMatrix values="0 0 0 0 1 0 0 0 0 1 0 0 0 0 1 0 0 0 1 0" color-interpolation-filters="sRGB"/></filter><mask id="3de6e5a807"><g filter="url(#2cabcbb786)"><rect x="-8.4" width="100.8" fill="#000000" y="-6.3" height="75.599996" fill-opacity="0.5"/></g></mask><clipPath id="7fbe05e8a3"><path d="M 0.414062 0.535156 L 83.582031 0.535156 L 83.582031 62.902344 L 0.414062 62.902344 Z M 0.414062 0.535156 " clip-rule="nonzero"/></clipPath><clipPath id="de42ceded8"><path d="M 4.914062 0.535156 L 79.082031 0.535156 C 81.566406 0.535156 83.582031 2.546875 83.582031 5.035156 L 83.582031 58.402344 C 83.582031 60.886719 81.566406 62.902344 79.082031 62.902344 L 4.914062 62.902344 C 2.429688 62.902344 0.414062 60.886719 0.414062 58.402344 L 0.414062 5.035156 C 0.414062 2.546875 2.429688 0.535156 4.914062 0.535156 Z M 4.914062 0.535156 " clip-rule="nonzero"/></clipPath><clipPath id="5e5af7bac6"><path d="M 0.417969 0.535156 L 83.664062 0.535156 L 83.664062 62.785156 L 0.417969 62.785156 Z M 0.417969 0.535156 " clip-rule="nonzero"/></clipPath><clipPath id="f977c6fd1b"><path d="M 4.917969 0.535156 L 79.070312 0.535156 C 81.554688 0.535156 83.570312 2.546875 83.570312 5.03125 L 83.570312 58.390625 C 83.570312 60.875 81.554688 62.890625 79.070312 62.890625 L 4.917969 62.890625 C 2.433594 62.890625 0.417969 60.875 0.417969 58.390625 L 0.417969 5.03125 C 0.417969 2.546875 2.433594 0.535156 4.917969 0.535156 Z M 4.917969 0.535156 " clip-rule="nonzero"/></clipPath><clipPath id="6804eeb14f"><rect x="0" width="84" y="0" height="63"/></clipPath><mask id="ca1f293700"><g filter="url(#2cabcbb786)"><rect x="-8.4" width="100.8" fill="#000000" y="-6.3" height="75.599996" fill-opacity="0.5"/></g></mask><clipPath id="9ac811531c"><path d="M 0.160156 0.261719 L 30.910156 0.261719 L 30.910156 31.011719 L 0.160156 31.011719 Z M 0.160156 0.261719 " clip-rule="nonzero"/></clipPath><clipPath id="be5ce56622"><rect x="0" width="32" y="0" height="32"/></clipPath></defs><g mask="url(#3de6e5a807)"><g transform="matrix(1, 0, 0, 1, 0, -0.000000000000008485)"><g clip-path="url(#6804eeb14f)"><g clip-path="url(#7fbe05e8a3)"><g clip-path="url(#de42ceded8)"><path fill="#ffffff" d="M 0.414062 0.535156 L 83.582031 0.535156 L 83.582031 62.902344 L 0.414062 62.902344 Z M 0.414062 0.535156 " fill-opacity="1" fill-rule="nonzero"/></g></g><g clip-path="url(#5e5af7bac6)"><g clip-path="url(#f977c6fd1b)"><path fill="#000000" d="M 15.417969 -0.964844 L 24.417969 -0.964844 L 24.417969 2.035156 L 15.417969 2.035156 Z M 25.917969 -0.964844 L 34.917969 -0.964844 L 34.917969 2.035156 L 25.917969 2.035156 Z M 36.417969 -0.964844 L 45.417969 -0.964844 L 45.417969 2.035156 L 36.417969 2.035156 Z M 46.917969 -0.964844 L 55.917969 -0.964844 L 55.917969 2.035156 L 46.917969 2.035156 Z M 57.417969 -0.964844 L 66.417969 -0.964844 L 66.417969 2.035156 L 57.417969 2.035156 Z M 67.917969 -0.964844 L 76.917969 -0.964844 L 76.917969 2.035156 L 67.917969 2.035156 Z M 78.417969 -0.964844 L 79.070312 -0.964844 C 80.726562 -0.964844 82.140625 -0.378906 83.3125 0.789062 C 84.484375 1.960938 85.070312 3.375 85.070312 5.03125 L 85.070312 6.355469 L 82.070312 6.355469 L 82.070312 5.03125 C 82.070312 3.035156 81.070312 2.035156 79.070312 2.035156 L 78.417969 2.035156 Z M 85.070312 7.855469 L 85.070312 16.855469 L 82.070312 16.855469 L 82.070312 7.855469 Z M 85.070312 18.355469 L 85.070312 27.355469 L 82.070312 27.355469 L 82.070312 18.355469 Z M 85.070312 28.855469 L 85.070312 37.855469 L 82.070312 37.855469 L 82.070312 28.855469 Z M 85.070312 39.355469 L 85.070312 48.355469 L 82.070312 48.355469 L 82.070312 39.355469 Z M 85.070312 49.855469 L 85.070312 58.390625 C 85.070312 58.605469 85.058594 58.816406 85.035156 59.027344 L 82.050781 58.710938 C 82.0625 58.605469 82.070312 58.5 82.070312 58.390625 L 82.070312 49.855469 Z M 84.496094 60.949219 C 83.414062 63.242188 81.605469 64.390625 79.070312 64.390625 L 75.125 64.390625 L 75.125 61.390625 L 79.070312 61.390625 C 80.339844 61.390625 81.242188 60.816406 81.785156 59.667969 Z M 73.625 64.390625 L 64.625 64.390625 L 64.625 61.390625 L 73.625 61.390625 Z M 63.125 64.390625 L 54.125 64.390625 L 54.125 61.390625 L 63.125 61.390625 Z M 52.625 64.390625 L 43.625 64.390625 L 43.625 61.390625 L 52.625 61.390625 Z M 42.125 64.390625 L 33.125 64.390625 L 33.125 61.390625 L 42.125 61.390625 Z M 31.625 64.390625 L 22.625 64.390625 L 22.625 61.390625 L 31.625 61.390625 Z M 21.125 64.390625 L 12.125 64.390625 L 12.125 61.390625 L 21.125 61.390625 Z M 10.625 64.390625 L 4.917969 64.390625 C 3.375 64.390625 2.03125 63.871094 0.886719 62.835938 L 2.902344 60.613281 C 3.472656 61.128906 4.144531 61.390625 4.917969 61.390625 L 10.625 61.390625 Z M -0.347656 61.265625 C -0.835938 60.375 -1.082031 59.414062 -1.082031 58.390625 L -1.082031 51.621094 L 1.917969 51.621094 L 1.917969 58.390625 C 1.917969 58.902344 2.039062 59.382812 2.285156 59.828125 Z M -1.082031 50.121094 L -1.082031 41.121094 L 1.917969 41.121094 L 1.917969 50.121094 Z M -1.082031 39.621094 L -1.082031 30.621094 L 1.917969 30.621094 L 1.917969 39.621094 Z M -1.082031 29.121094 L -1.082031 20.121094 L 1.917969 20.121094 L 1.917969 29.121094 Z M -1.082031 18.621094 L -1.082031 9.621094 L 1.917969 9.621094 L 1.917969 18.621094 Z M -1.082031 8.121094 L -1.082031 5.03125 C -1.082031 1.929688 0.421875 -0.0078125 3.425781 -0.777344 L 4.167969 2.128906 C 2.667969 2.511719 1.917969 3.480469 1.917969 5.03125 L 1.917969 8.121094 Z M 4.917969 -0.964844 L 13.917969 -0.964844 L 13.917969 2.035156 L 4.917969 2.035156 Z M 4.917969 -0.964844 " fill-opacity="1" fill-rule="nonzero"/></g></g></g></g></g><g mask="url(#ca1f293700)"><g transform="matrix(1, 0, 0, 1, 27, 16)"><g clip-path="url(#be5ce56622)"><g clip-path="url(#9ac811531c)"><path fill="#000000" d="M 1.183594 16.664062 L 14.507812 16.664062 L 14.507812 29.988281 C 14.507812 30.554688 14.96875 31.011719 15.535156 31.011719 C 16.101562 31.011719 16.558594 30.554688 16.558594 29.988281 L 16.558594 16.664062 L 29.882812 16.664062 C 30.449219 16.664062 30.910156 16.203125 30.910156 15.636719 C 30.910156 15.074219 30.449219 14.613281 29.882812 14.613281 L 16.558594 14.613281 L 16.558594 1.289062 C 16.558594 0.722656 16.101562 0.261719 15.535156 0.261719 C 14.96875 0.261719 14.507812 0.722656 14.507812 1.289062 L 14.507812 14.613281 L 1.183594 14.613281 C 0.617188 14.613281 0.160156 15.074219 0.160156 15.636719 C 0.160156 16.203125 0.617188 16.664062 1.183594 16.664062 Z M 1.183594 16.664062 " fill-opacity="1" fill-rule="nonzero"/></g></g></g></g></svg>