<svg xmlns="http://www.w3.org/2000/svg" xmlns:xlink="http://www.w3.org/1999/xlink" width="34" zoomAndPan="magnify" viewBox="0 0 25.5 25.499999" height="34" preserveAspectRatio="xMidYMid meet" version="1.0"><defs><filter x="0%" y="0%" width="100%" height="100%" id="e85f108029"><feColorMatrix values="0 0 0 0 1 0 0 0 0 1 0 0 0 0 1 0 0 0 1 0" color-interpolation-filters="sRGB"/></filter><clipPath id="45bc1a31f1"><path d="M 0 0 L 25.007812 0 L 25.007812 25.007812 L 0 25.007812 Z M 0 0 " clip-rule="nonzero"/></clipPath><mask id="3f8286803c"><g filter="url(#e85f108029)"><rect x="-2.55" width="30.6" fill="#000000" y="-2.55" height="30.599999" fill-opacity="0.5"/></g></mask><clipPath id="88b3a6cb04"><path d="M 0.53125 0.015625 L 24.804688 0.015625 L 24.804688 24.289062 L 0.53125 24.289062 Z M 0.53125 0.015625 " clip-rule="nonzero"/></clipPath><clipPath id="c7d532240b"><rect x="0" width="26" y="0" height="26"/></clipPath><mask id="392c88a63e"><g filter="url(#e85f108029)"><rect x="-2.55" width="30.6" fill="#000000" y="-2.55" height="30.599999" fill-opacity="0.6"/></g></mask><clipPath id="63831caacd"><path d="M 0.761719 0.472656 L 10.324219 0.472656 L 10.324219 13.714844 L 0.761719 13.714844 Z M 0.761719 0.472656 " clip-rule="nonzero"/></clipPath><clipPath id="91e8662a30"><rect x="0" width="12" y="0" height="15"/></clipPath></defs><g clip-path="url(#45bc1a31f1)"><g mask="url(#3f8286803c)"><g transform="matrix(1, 0, 0, 1, 0, 0)"><g clip-path="url(#c7d532240b)"><g clip-path="url(#88b3a6cb04)"><path fill="#000000" d="M 12.667969 24.289062 C 5.964844 24.289062 0.53125 18.820312 0.53125 12.152344 C 0.53125 5.484375 5.964844 0.015625 12.667969 0.015625 C 19.375 0.015625 24.804688 5.449219 24.804688 12.152344 C 24.804688 18.859375 19.335938 24.289062 12.667969 24.289062 Z M 12.667969 0.765625 C 6.375 0.765625 1.28125 5.859375 1.28125 12.152344 C 1.28125 18.445312 6.375 23.542969 12.667969 23.542969 C 18.960938 23.542969 24.054688 18.445312 24.054688 12.152344 C 24.054688 5.859375 18.925781 0.765625 12.667969 0.765625 Z M 12.667969 0.765625 " fill-opacity="1" fill-rule="nonzero"/></g></g></g></g></g><g mask="url(#392c88a63e)"><g transform="matrix(1, 0, 0, 1, 7, 5)"><g clip-path="url(#91e8662a30)"><g clip-path="url(#63831caacd)"><path fill="#11171d" d="M 10.273438 8.375 C 10.324219 7.898438 10.289062 7.375 9.976562 6.992188 C 9.71875 6.671875 9.335938 6.523438 8.933594 6.519531 C 8.84375 6.519531 8.757812 6.519531 8.667969 6.519531 L 8.664062 6.480469 C 8.605469 6.019531 8.546875 5.554688 8.488281 5.089844 C 8.75 4.953125 8.972656 4.753906 9.140625 4.496094 C 9.367188 4.140625 9.410156 3.746094 9.410156 3.335938 L 9.410156 2.273438 C 9.410156 1.800781 9.265625 1.355469 8.941406 1.007812 C 8.617188 0.664062 8.167969 0.480469 7.703125 0.476562 C 7.53125 0.476562 7.355469 0.476562 7.179688 0.476562 L 4.949219 0.476562 C 4.417969 0.476562 3.882812 0.472656 3.351562 0.476562 C 2.382812 0.480469 1.636719 1.269531 1.636719 2.246094 C 1.632812 2.59375 1.636719 2.941406 1.636719 3.289062 C 1.636719 3.691406 1.660156 4.074219 1.867188 4.429688 C 2.03125 4.714844 2.273438 4.941406 2.558594 5.089844 C 2.515625 5.425781 2.472656 5.761719 2.429688 6.097656 C 2.414062 6.238281 2.394531 6.378906 2.378906 6.519531 C 2.277344 6.519531 2.175781 6.519531 2.074219 6.519531 C 1.582031 6.523438 1.105469 6.800781 0.894531 7.265625 C 0.785156 7.496094 0.765625 7.738281 0.765625 7.988281 C 0.765625 8.152344 0.761719 8.316406 0.785156 8.476562 C 0.773438 8.503906 0.765625 8.535156 0.765625 8.570312 L 0.765625 9.859375 C 0.765625 9.980469 0.863281 10.082031 0.980469 10.082031 L 1.929688 10.082031 C 1.847656 10.742188 1.761719 11.398438 1.679688 12.058594 L 1.585938 12.8125 C 1.554688 13.066406 1.5625 13.296875 1.765625 13.503906 C 1.886719 13.628906 2.054688 13.703125 2.226562 13.710938 C 2.234375 13.710938 2.246094 13.710938 2.253906 13.710938 C 2.265625 13.710938 2.273438 13.710938 2.285156 13.710938 C 2.671875 13.679688 2.914062 13.386719 2.949219 13.003906 C 2.953125 12.972656 2.957031 12.9375 2.960938 12.90625 C 2.988281 12.695312 3.015625 12.484375 3.042969 12.273438 L 3.316406 10.082031 L 7.726562 10.082031 C 7.8125 10.742188 7.894531 11.398438 7.976562 12.058594 L 8.070312 12.8125 C 8.101562 13.058594 8.113281 13.3125 8.300781 13.503906 C 8.421875 13.628906 8.589844 13.703125 8.757812 13.710938 C 8.769531 13.710938 8.78125 13.710938 8.789062 13.710938 C 8.800781 13.710938 8.808594 13.710938 8.820312 13.710938 C 9.226562 13.675781 9.523438 13.320312 9.472656 12.90625 C 9.445312 12.695312 9.417969 12.484375 9.390625 12.273438 L 9.117188 10.082031 L 10.0625 10.082031 C 10.128906 10.082031 10.179688 10.054688 10.214844 10.015625 C 10.253906 9.980469 10.28125 9.929688 10.28125 9.859375 L 10.28125 8.570312 C 10.28125 8.535156 10.273438 8.503906 10.261719 8.476562 C 10.265625 8.445312 10.273438 8.410156 10.273438 8.375 Z M 8.789062 13.265625 C 8.542969 13.265625 8.535156 13.019531 8.511719 12.835938 C 8.480469 12.601562 8.453125 12.371094 8.421875 12.136719 C 8.335938 11.453125 8.25 10.765625 8.164062 10.082031 L 8.679688 10.082031 C 8.753906 10.675781 8.832031 11.273438 8.90625 11.871094 C 8.941406 12.148438 8.976562 12.425781 9.011719 12.699219 C 9.023438 12.800781 9.046875 12.90625 9.046875 13.003906 C 9.050781 13.152344 8.929688 13.261719 8.789062 13.265625 Z M 9.0625 9.636719 L 1.199219 9.636719 L 1.199219 8.792969 L 9.847656 8.792969 L 9.847656 9.636719 Z M 2.253906 13.265625 C 1.984375 13.265625 1.996094 13.023438 2.019531 12.835938 C 2.046875 12.601562 2.078125 12.371094 2.105469 12.136719 C 2.191406 11.453125 2.277344 10.765625 2.363281 10.082031 L 2.882812 10.082031 C 2.808594 10.675781 2.730469 11.273438 2.65625 11.871094 C 2.609375 12.246094 2.566406 12.625 2.515625 13.003906 C 2.492188 13.152344 2.410156 13.261719 2.253906 13.265625 Z M 1.679688 7.054688 C 1.855469 6.964844 2.039062 6.964844 2.230469 6.964844 L 7.628906 6.964844 C 7.675781 6.964844 7.722656 6.964844 7.773438 6.964844 C 7.945312 6.964844 8.117188 6.964844 8.289062 6.964844 C 8.359375 6.964844 8.433594 6.964844 8.507812 6.964844 C 8.578125 6.964844 8.652344 6.964844 8.722656 6.964844 C 8.804688 6.964844 8.882812 6.964844 8.964844 6.964844 C 9.351562 6.96875 9.707031 7.207031 9.8125 7.597656 C 9.863281 7.785156 9.847656 7.988281 9.847656 8.179688 C 9.847656 8.234375 9.84375 8.292969 9.835938 8.347656 L 1.210938 8.347656 C 1.203125 8.300781 1.199219 8.25 1.199219 8.199219 C 1.199219 8.023438 1.179688 7.828125 1.21875 7.65625 C 1.277344 7.394531 1.441406 7.171875 1.679688 7.054688 Z M 2.070312 2.878906 C 2.070312 2.597656 2.042969 2.292969 2.082031 2.015625 C 2.152344 1.53125 2.496094 1.117188 2.953125 0.976562 C 3.144531 0.917969 3.335938 0.921875 3.535156 0.921875 L 4.3125 0.921875 C 5.449219 0.921875 6.585938 0.90625 7.71875 0.921875 C 8.214844 0.925781 8.675781 1.222656 8.875 1.691406 C 8.996094 1.980469 8.972656 2.289062 8.972656 2.59375 C 8.972656 2.910156 8.976562 3.226562 8.972656 3.542969 C 8.972656 3.96875 8.777344 4.375 8.429688 4.613281 C 8.417969 4.621094 8.410156 4.628906 8.402344 4.632812 C 8.34375 4.671875 8.285156 4.703125 8.226562 4.730469 C 8.15625 4.761719 8.089844 4.785156 8.015625 4.800781 C 7.921875 4.824219 7.820312 4.835938 7.71875 4.839844 L 3.535156 4.839844 C 3.363281 4.839844 3.195312 4.839844 3.027344 4.800781 C 3.003906 4.796875 2.980469 4.789062 2.953125 4.78125 C 2.910156 4.769531 2.863281 4.75 2.820312 4.730469 C 2.75 4.699219 2.679688 4.660156 2.617188 4.613281 C 2.332031 4.414062 2.128906 4.09375 2.082031 3.734375 C 2.042969 3.457031 2.070312 3.160156 2.070312 2.878906 Z M 8.160156 5.953125 C 8.183594 6.144531 8.210938 6.332031 8.234375 6.519531 L 7.714844 6.519531 C 7.710938 6.464844 7.703125 6.410156 7.695312 6.351562 C 7.648438 5.996094 7.605469 5.640625 7.558594 5.28125 L 7.71875 5.28125 C 7.839844 5.28125 7.957031 5.265625 8.070312 5.242188 Z M 3.769531 6.480469 C 3.820312 6.082031 3.871094 5.683594 3.921875 5.28125 L 7.125 5.28125 C 7.160156 5.554688 7.191406 5.824219 7.226562 6.097656 C 7.246094 6.238281 7.261719 6.378906 7.28125 6.519531 L 3.765625 6.519531 Z M 2.832031 6.351562 C 2.878906 5.984375 2.925781 5.613281 2.972656 5.242188 C 3.0625 5.261719 3.152344 5.273438 3.246094 5.28125 C 3.324219 5.285156 3.40625 5.285156 3.484375 5.285156 C 3.457031 5.507812 3.429688 5.730469 3.402344 5.953125 C 3.378906 6.144531 3.351562 6.332031 3.328125 6.519531 C 3.15625 6.519531 2.984375 6.519531 2.8125 6.519531 C 2.820312 6.464844 2.828125 6.410156 2.832031 6.351562 Z M 2.832031 6.351562 " fill-opacity="1" fill-rule="nonzero"/></g></g></g></g></svg>