<svg xmlns="http://www.w3.org/2000/svg" xmlns:xlink="http://www.w3.org/1999/xlink" width="28" zoomAndPan="magnify" viewBox="0 0 21 21.75" height="29" preserveAspectRatio="xMidYMid meet" version="1.0"><defs><clipPath id="27cf9b747f"><path d="M 0.492188 0.527344 L 20.746094 0.527344 L 20.746094 20.78125 L 0.492188 20.78125 Z M 0.492188 0.527344 " clip-rule="nonzero"/></clipPath><clipPath id="13de40b746"><path d="M 6.527344 5.078125 L 14.503906 5.078125 L 14.503906 16.128906 L 6.527344 16.128906 Z M 6.527344 5.078125 " clip-rule="nonzero"/></clipPath></defs><g clip-path="url(#27cf9b747f)"><path fill="#000000" d="M 10.621094 20.78125 C 5.023438 20.78125 0.492188 16.21875 0.492188 10.652344 C 0.492188 5.089844 5.023438 0.527344 10.621094 0.527344 C 16.214844 0.527344 20.746094 5.058594 20.746094 10.652344 C 20.746094 16.25 16.183594 20.78125 10.621094 20.78125 Z M 10.621094 1.152344 C 5.367188 1.152344 1.117188 5.402344 1.117188 10.652344 C 1.117188 15.90625 5.367188 20.15625 10.621094 20.15625 C 15.871094 20.15625 20.121094 15.90625 20.121094 10.652344 C 20.121094 5.402344 15.839844 1.152344 10.621094 1.152344 Z M 10.621094 1.152344 " fill-opacity="1" fill-rule="nonzero"/></g><g clip-path="url(#13de40b746)"><path fill="#11171d" d="M 14.464844 11.671875 C 14.503906 11.273438 14.476562 10.835938 14.214844 10.519531 C 14 10.25 13.679688 10.125 13.34375 10.125 C 13.269531 10.125 13.195312 10.125 13.125 10.125 L 13.117188 10.09375 C 13.070312 9.707031 13.023438 9.320312 12.972656 8.929688 C 13.191406 8.820312 13.378906 8.648438 13.515625 8.433594 C 13.707031 8.140625 13.742188 7.8125 13.742188 7.46875 L 13.742188 6.582031 C 13.742188 6.1875 13.621094 5.816406 13.351562 5.527344 C 13.082031 5.238281 12.707031 5.085938 12.320312 5.082031 C 12.171875 5.082031 12.027344 5.082031 11.878906 5.082031 L 10.019531 5.082031 C 9.574219 5.082031 9.128906 5.082031 8.683594 5.082031 C 7.875 5.085938 7.257812 5.742188 7.253906 6.558594 C 7.253906 6.851562 7.253906 7.140625 7.253906 7.429688 C 7.253906 7.765625 7.277344 8.082031 7.449219 8.378906 C 7.585938 8.621094 7.789062 8.808594 8.023438 8.933594 C 7.988281 9.210938 7.953125 9.492188 7.917969 9.769531 C 7.902344 9.886719 7.886719 10.007812 7.875 10.125 C 7.789062 10.125 7.707031 10.125 7.621094 10.125 C 7.210938 10.128906 6.8125 10.359375 6.636719 10.746094 C 6.546875 10.941406 6.527344 11.140625 6.527344 11.351562 C 6.527344 11.488281 6.523438 11.625 6.546875 11.757812 C 6.535156 11.78125 6.527344 11.808594 6.527344 11.835938 L 6.527344 12.910156 C 6.527344 13.011719 6.609375 13.09375 6.710938 13.09375 L 7.5 13.09375 C 7.429688 13.644531 7.363281 14.195312 7.292969 14.746094 L 7.214844 15.375 C 7.1875 15.585938 7.195312 15.78125 7.363281 15.953125 C 7.464844 16.054688 7.605469 16.117188 7.746094 16.125 C 7.753906 16.125 7.765625 16.125 7.773438 16.125 C 7.78125 16.125 7.789062 16.125 7.796875 16.125 C 8.121094 16.097656 8.320312 15.855469 8.351562 15.535156 C 8.355469 15.507812 8.359375 15.480469 8.363281 15.453125 C 8.382812 15.277344 8.40625 15.101562 8.429688 14.925781 L 8.65625 13.09375 L 12.339844 13.09375 C 12.40625 13.644531 12.476562 14.195312 12.546875 14.746094 L 12.625 15.375 C 12.652344 15.582031 12.660156 15.792969 12.816406 15.953125 C 12.917969 16.054688 13.054688 16.117188 13.199219 16.125 C 13.207031 16.125 13.214844 16.125 13.222656 16.125 C 13.234375 16.125 13.242188 16.125 13.25 16.121094 C 13.589844 16.09375 13.835938 15.800781 13.792969 15.453125 C 13.769531 15.277344 13.75 15.101562 13.726562 14.925781 L 13.496094 13.09375 L 14.289062 13.09375 C 14.34375 13.09375 14.386719 13.074219 14.414062 13.042969 C 14.449219 13.011719 14.46875 12.96875 14.46875 12.910156 L 14.46875 11.835938 C 14.46875 11.808594 14.460938 11.78125 14.453125 11.757812 C 14.457031 11.730469 14.460938 11.703125 14.464844 11.671875 Z M 13.222656 15.753906 C 13.019531 15.753906 13.011719 15.546875 12.992188 15.394531 C 12.96875 15.199219 12.941406 15.003906 12.917969 14.8125 C 12.847656 14.238281 12.773438 13.667969 12.703125 13.09375 L 13.132812 13.09375 C 13.195312 13.59375 13.257812 14.089844 13.320312 14.589844 C 13.351562 14.820312 13.378906 15.050781 13.410156 15.28125 C 13.417969 15.363281 13.441406 15.453125 13.441406 15.535156 C 13.441406 15.660156 13.34375 15.75 13.222656 15.753906 Z M 13.449219 12.726562 L 6.890625 12.726562 L 6.890625 12.019531 L 14.105469 12.019531 L 14.105469 12.726562 Z M 7.773438 15.753906 C 7.546875 15.753906 7.554688 15.550781 7.574219 15.394531 C 7.597656 15.199219 7.625 15.003906 7.648438 14.8125 C 7.71875 14.238281 7.792969 13.667969 7.863281 13.09375 L 8.292969 13.09375 C 8.230469 13.59375 8.167969 14.089844 8.105469 14.589844 C 8.066406 14.902344 8.03125 15.21875 7.988281 15.535156 C 7.972656 15.65625 7.902344 15.75 7.773438 15.753906 Z M 7.292969 10.570312 C 7.441406 10.496094 7.59375 10.496094 7.75 10.496094 L 12.253906 10.496094 C 12.296875 10.496094 12.335938 10.496094 12.375 10.496094 C 12.519531 10.496094 12.664062 10.496094 12.804688 10.496094 C 12.867188 10.496094 12.925781 10.496094 12.988281 10.496094 C 13.046875 10.496094 13.109375 10.496094 13.167969 10.496094 C 13.234375 10.496094 13.300781 10.496094 13.367188 10.496094 C 13.695312 10.496094 13.988281 10.699219 14.078125 11.023438 C 14.121094 11.179688 14.105469 11.347656 14.105469 11.507812 C 14.105469 11.554688 14.101562 11.601562 14.097656 11.648438 L 6.898438 11.648438 C 6.894531 11.609375 6.890625 11.566406 6.890625 11.527344 C 6.890625 11.378906 6.875 11.214844 6.90625 11.074219 C 6.953125 10.855469 7.09375 10.667969 7.292969 10.570312 Z M 7.617188 7.085938 C 7.617188 6.851562 7.59375 6.597656 7.628906 6.363281 C 7.683594 5.964844 7.972656 5.617188 8.355469 5.5 C 8.515625 5.449219 8.675781 5.453125 8.839844 5.453125 L 9.488281 5.453125 C 10.4375 5.453125 11.386719 5.441406 12.332031 5.453125 C 12.746094 5.457031 13.128906 5.703125 13.292969 6.09375 C 13.394531 6.335938 13.378906 6.59375 13.378906 6.851562 C 13.378906 7.113281 13.378906 7.375 13.378906 7.640625 C 13.375 7.996094 13.214844 8.332031 12.921875 8.535156 C 12.914062 8.539062 12.910156 8.546875 12.902344 8.550781 C 12.851562 8.582031 12.804688 8.609375 12.753906 8.628906 C 12.695312 8.65625 12.640625 8.675781 12.578125 8.691406 C 12.5 8.710938 12.417969 8.71875 12.332031 8.722656 L 8.839844 8.722656 C 8.695312 8.722656 8.554688 8.722656 8.417969 8.691406 C 8.398438 8.6875 8.375 8.679688 8.355469 8.675781 C 8.316406 8.664062 8.28125 8.648438 8.242188 8.632812 C 8.183594 8.605469 8.125 8.574219 8.074219 8.535156 C 7.835938 8.367188 7.667969 8.097656 7.625 7.800781 C 7.597656 7.570312 7.617188 7.320312 7.617188 7.085938 Z M 12.699219 9.652344 C 12.71875 9.808594 12.738281 9.96875 12.757812 10.125 L 12.328125 10.125 C 12.324219 10.078125 12.316406 10.03125 12.3125 9.984375 C 12.273438 9.6875 12.234375 9.390625 12.199219 9.09375 L 12.332031 9.09375 C 12.433594 9.089844 12.53125 9.078125 12.625 9.058594 Z M 9.035156 10.09375 C 9.078125 9.757812 9.121094 9.425781 9.160156 9.09375 L 11.835938 9.09375 C 11.863281 9.316406 11.890625 9.542969 11.921875 9.769531 C 11.933594 9.890625 11.949219 10.007812 11.964844 10.125 L 9.03125 10.125 Z M 8.253906 9.984375 C 8.292969 9.675781 8.332031 9.367188 8.371094 9.058594 C 8.445312 9.074219 8.519531 9.085938 8.597656 9.089844 C 8.664062 9.09375 8.730469 9.09375 8.796875 9.09375 C 8.773438 9.28125 8.75 9.464844 8.726562 9.652344 C 8.707031 9.808594 8.6875 9.96875 8.667969 10.125 C 8.523438 10.125 8.382812 10.125 8.238281 10.125 C 8.242188 10.078125 8.25 10.03125 8.253906 9.984375 Z M 8.253906 9.984375 " fill-opacity="1" fill-rule="nonzero"/></g></svg>