<svg xmlns="http://www.w3.org/2000/svg" xmlns:xlink="http://www.w3.org/1999/xlink" width="29" zoomAndPan="magnify" viewBox="0 0 21.75 22.5" height="30" preserveAspectRatio="xMidYMid meet" version="1.0"><defs><clipPath id="2e49a48199"><path d="M 0.613281 0.648438 L 21.1875 0.648438 L 21.1875 21.222656 L 0.613281 21.222656 Z M 0.613281 0.648438 " clip-rule="nonzero"/></clipPath><clipPath id="81bb09f1a3"><path d="M 3.894531 5.34375 L 18.589844 5.34375 L 18.589844 17.101562 L 3.894531 17.101562 Z M 3.894531 5.34375 " clip-rule="nonzero"/></clipPath></defs><g clip-path="url(#2e49a48199)"><path fill="#000000" d="M 10.898438 21.222656 C 5.214844 21.222656 0.613281 16.585938 0.613281 10.933594 C 0.613281 5.285156 5.214844 0.648438 10.898438 0.648438 C 16.582031 0.648438 21.1875 5.253906 21.1875 10.933594 C 21.1875 16.617188 16.550781 21.222656 10.898438 21.222656 Z M 10.898438 1.285156 C 5.566406 1.285156 1.246094 5.601562 1.246094 10.933594 C 1.246094 16.269531 5.566406 20.585938 10.898438 20.585938 C 16.234375 20.585938 20.550781 16.269531 20.550781 10.933594 C 20.550781 5.601562 16.199219 1.285156 10.898438 1.285156 Z M 10.898438 1.285156 " fill-opacity="1" fill-rule="nonzero"/></g><g clip-path="url(#81bb09f1a3)"><path fill="#000000" d="M 17.828125 10.234375 L 17.585938 10.234375 L 17.585938 6.078125 C 17.585938 5.875 17.511719 5.703125 17.371094 5.558594 C 17.226562 5.414062 17.054688 5.34375 16.851562 5.34375 L 15.386719 5.34375 C 15.1875 5.34375 15.015625 5.414062 14.871094 5.558594 C 14.726562 5.703125 14.65625 5.875 14.65625 6.078125 L 14.65625 6.34375 C 14.304688 6.402344 14.011719 6.570312 13.78125 6.84375 C 13.550781 7.117188 13.4375 7.429688 13.4375 7.789062 L 13.4375 8.03125 C 13.4375 8.101562 13.460938 8.15625 13.507812 8.207031 C 13.554688 8.253906 13.613281 8.277344 13.679688 8.277344 L 16.121094 8.277344 C 16.1875 8.277344 16.246094 8.253906 16.292969 8.207031 C 16.339844 8.15625 16.363281 8.101562 16.363281 8.03125 L 16.363281 7.789062 C 16.363281 7.429688 16.25 7.117188 16.019531 6.84375 C 15.789062 6.570312 15.496094 6.402344 15.144531 6.34375 L 15.144531 6.078125 C 15.144531 6.011719 15.167969 5.953125 15.214844 5.90625 C 15.261719 5.855469 15.320312 5.832031 15.386719 5.832031 L 16.851562 5.832031 C 16.921875 5.832031 16.976562 5.855469 17.023438 5.90625 C 17.074219 5.953125 17.097656 6.011719 17.097656 6.078125 L 17.097656 10.234375 L 9.730469 10.234375 C 9.679688 10.085938 9.589844 9.96875 9.464844 9.878906 C 9.339844 9.789062 9.199219 9.746094 9.042969 9.742188 L 7.09375 9.742188 C 6.9375 9.746094 6.796875 9.789062 6.671875 9.878906 C 6.546875 9.96875 6.457031 10.085938 6.40625 10.234375 L 4.652344 10.234375 C 4.449219 10.234375 4.277344 10.304688 4.136719 10.449219 C 3.992188 10.589844 3.921875 10.761719 3.917969 10.964844 C 3.921875 11.121094 3.964844 11.261719 4.054688 11.386719 C 4.144531 11.511719 4.261719 11.601562 4.40625 11.652344 L 4.40625 13.898438 C 4.410156 14.398438 4.539062 14.859375 4.792969 15.285156 C 5.050781 15.710938 5.398438 16.042969 5.839844 16.273438 L 5.457031 16.660156 C 5.40625 16.707031 5.382812 16.765625 5.382812 16.832031 C 5.378906 16.902344 5.402344 16.960938 5.453125 17.007812 C 5.5 17.054688 5.558594 17.078125 5.628906 17.078125 C 5.695312 17.078125 5.753906 17.054688 5.800781 17.003906 L 6.238281 16.566406 C 6.265625 16.539062 6.285156 16.503906 6.292969 16.464844 C 6.554688 16.546875 6.820312 16.585938 7.09375 16.585938 L 15.386719 16.585938 C 15.652344 16.585938 15.910156 16.546875 16.164062 16.472656 C 16.171875 16.488281 16.179688 16.503906 16.191406 16.515625 L 16.675781 17 C 16.792969 17.113281 16.90625 17.113281 17.019531 17 C 17.132812 16.886719 17.132812 16.769531 17.023438 16.65625 L 16.640625 16.273438 C 17.082031 16.042969 17.429688 15.710938 17.6875 15.285156 C 17.945312 14.859375 18.070312 14.398438 18.074219 13.898438 L 18.074219 11.65625 C 18.175781 11.621094 18.265625 11.5625 18.34375 11.484375 C 18.488281 11.34375 18.5625 11.171875 18.5625 10.964844 C 18.5625 10.761719 18.488281 10.589844 18.347656 10.445312 C 18.203125 10.304688 18.03125 10.234375 17.828125 10.234375 Z M 15.875 7.789062 L 13.925781 7.789062 C 13.925781 7.660156 13.949219 7.535156 14 7.414062 C 14.046875 7.292969 14.117188 7.1875 14.210938 7.097656 C 14.300781 7.003906 14.40625 6.933594 14.527344 6.886719 C 14.648438 6.835938 14.769531 6.8125 14.902344 6.8125 C 15.03125 6.8125 15.15625 6.835938 15.273438 6.886719 C 15.394531 6.933594 15.5 7.003906 15.589844 7.097656 C 15.683594 7.1875 15.753906 7.292969 15.800781 7.414062 C 15.851562 7.535156 15.875 7.660156 15.875 7.789062 Z M 6.847656 10.476562 C 6.847656 10.410156 6.871094 10.351562 6.917969 10.304688 C 6.96875 10.257812 7.023438 10.234375 7.09375 10.234375 L 9.042969 10.234375 C 9.113281 10.234375 9.167969 10.257812 9.214844 10.304688 C 9.265625 10.351562 9.289062 10.410156 9.289062 10.476562 L 9.289062 12.675781 L 6.847656 12.675781 Z M 6.847656 13.164062 L 9.289062 13.164062 L 9.289062 13.652344 L 6.847656 13.652344 Z M 4.40625 10.964844 C 4.40625 10.898438 4.433594 10.839844 4.484375 10.792969 C 4.527344 10.742188 4.585938 10.71875 4.652344 10.722656 L 6.359375 10.722656 L 6.359375 11.210938 L 4.652344 11.210938 C 4.585938 11.210938 4.527344 11.1875 4.480469 11.136719 C 4.433594 11.089844 4.40625 11.03125 4.40625 10.964844 Z M 17.585938 13.898438 C 17.585938 14.191406 17.527344 14.46875 17.417969 14.738281 C 17.304688 15.007812 17.148438 15.246094 16.941406 15.453125 C 16.734375 15.660156 16.496094 15.820312 16.230469 15.929688 C 15.960938 16.042969 15.679688 16.097656 15.386719 16.097656 L 7.09375 16.097656 C 6.800781 16.097656 6.519531 16.042969 6.253906 15.929688 C 5.984375 15.820312 5.746094 15.660156 5.539062 15.453125 C 5.335938 15.246094 5.175781 15.007812 5.0625 14.738281 C 4.953125 14.46875 4.894531 14.191406 4.894531 13.898438 L 4.894531 11.699219 L 6.359375 11.699219 L 6.359375 13.898438 C 6.359375 13.964844 6.382812 14.023438 6.429688 14.070312 C 6.480469 14.117188 6.535156 14.144531 6.605469 14.144531 L 9.53125 14.144531 C 9.597656 14.144531 9.65625 14.117188 9.703125 14.070312 C 9.753906 14.023438 9.777344 13.964844 9.777344 13.898438 L 9.777344 11.699219 L 17.585938 11.699219 Z M 17.996094 11.140625 C 17.953125 11.1875 17.894531 11.210938 17.828125 11.210938 L 9.777344 11.210938 L 9.777344 10.722656 L 17.828125 10.722656 C 17.894531 10.722656 17.953125 10.746094 18 10.792969 C 18.050781 10.839844 18.074219 10.898438 18.074219 10.964844 C 18.074219 11.035156 18.046875 11.09375 17.996094 11.140625 Z M 17.996094 11.140625 " fill-opacity="1" fill-rule="nonzero"/></g></svg>