<svg xmlns="http://www.w3.org/2000/svg" xmlns:xlink="http://www.w3.org/1999/xlink" width="26" zoomAndPan="magnify" viewBox="0 0 19.5 18.75" height="25" preserveAspectRatio="xMidYMid meet" version="1.0"><defs><clipPath id="ba9732c6c9"><path d="M 0.585938 0.113281 L 18.617188 0.113281 L 18.617188 18.144531 L 0.585938 18.144531 Z M 0.585938 0.113281 " clip-rule="nonzero"/></clipPath><clipPath id="6a8e5bacf8"><path d="M 4.511719 4.007812 L 14.816406 4.007812 L 14.816406 14.3125 L 4.511719 14.3125 Z M 4.511719 4.007812 " clip-rule="nonzero"/></clipPath></defs><g clip-path="url(#ba9732c6c9)"><path fill="#000000" d="M 9.601562 18.144531 C 4.621094 18.144531 0.585938 14.082031 0.585938 9.128906 C 0.585938 4.175781 4.621094 0.113281 9.601562 0.113281 C 14.582031 0.113281 18.617188 4.148438 18.617188 9.128906 C 18.617188 14.109375 14.554688 18.144531 9.601562 18.144531 Z M 9.601562 0.671875 C 4.929688 0.671875 1.144531 4.453125 1.144531 9.128906 C 1.144531 13.804688 4.929688 17.585938 9.601562 17.585938 C 14.277344 17.585938 18.0625 13.804688 18.0625 9.128906 C 18.0625 4.453125 14.25 0.671875 9.601562 0.671875 Z M 9.601562 0.671875 " fill-opacity="1" fill-rule="nonzero"/></g><g clip-path="url(#6a8e5bacf8)"><path fill="#000000" d="M 14.09375 5.246094 L 13.167969 5.246094 L 13.167969 4.214844 C 13.167969 4.101562 13.074219 4.007812 12.960938 4.007812 C 12.847656 4.007812 12.753906 4.101562 12.753906 4.214844 L 12.753906 5.246094 L 6.574219 5.246094 L 6.574219 4.214844 C 6.574219 4.101562 6.480469 4.007812 6.367188 4.007812 C 6.253906 4.007812 6.160156 4.101562 6.160156 4.214844 L 6.160156 5.246094 L 5.234375 5.246094 C 4.835938 5.246094 4.511719 5.570312 4.511719 5.964844 L 4.511719 13.589844 C 4.511719 13.988281 4.835938 14.3125 5.234375 14.3125 L 14.09375 14.3125 C 14.492188 14.3125 14.816406 13.988281 14.816406 13.589844 L 14.816406 5.964844 C 14.816406 5.570312 14.492188 5.246094 14.09375 5.246094 Z M 5.234375 5.65625 L 6.160156 5.65625 L 6.160156 6.277344 C 6.160156 6.390625 6.253906 6.480469 6.367188 6.480469 C 6.480469 6.480469 6.574219 6.390625 6.574219 6.277344 L 6.574219 5.65625 L 12.753906 5.65625 L 12.753906 6.277344 C 12.753906 6.390625 12.847656 6.480469 12.960938 6.480469 C 13.074219 6.480469 13.167969 6.390625 13.167969 6.277344 L 13.167969 5.65625 L 14.09375 5.65625 C 14.265625 5.65625 14.402344 5.796875 14.402344 5.964844 L 14.402344 7.304688 L 4.925781 7.304688 L 4.925781 5.964844 C 4.925781 5.796875 5.0625 5.65625 5.234375 5.65625 Z M 14.09375 13.898438 L 5.234375 13.898438 C 5.0625 13.898438 4.925781 13.761719 4.925781 13.589844 L 4.925781 7.71875 L 14.402344 7.71875 L 14.402344 13.589844 C 14.402344 13.761719 14.265625 13.898438 14.09375 13.898438 Z M 14.09375 13.898438 " fill-opacity="1" fill-rule="nonzero"/></g><path fill="#000000" d="M 5.957031 8.75 L 6.78125 8.75 L 6.78125 9.574219 L 5.957031 9.574219 Z M 5.957031 8.75 " fill-opacity="1" fill-rule="nonzero"/><path fill="#000000" d="M 7.605469 8.75 L 8.429688 8.75 L 8.429688 9.574219 L 7.605469 9.574219 Z M 7.605469 8.75 " fill-opacity="1" fill-rule="nonzero"/><path fill="#000000" d="M 9.253906 8.75 L 10.078125 8.75 L 10.078125 9.574219 L 9.253906 9.574219 Z M 9.253906 8.75 " fill-opacity="1" fill-rule="nonzero"/><path fill="#000000" d="M 10.902344 8.75 L 11.726562 8.75 L 11.726562 9.574219 L 10.902344 9.574219 Z M 10.902344 8.75 " fill-opacity="1" fill-rule="nonzero"/><path fill="#000000" d="M 12.550781 8.75 L 13.375 8.75 L 13.375 9.574219 L 12.550781 9.574219 Z M 12.550781 8.75 " fill-opacity="1" fill-rule="nonzero"/><path fill="#000000" d="M 5.957031 10.398438 L 6.78125 10.398438 L 6.78125 11.222656 L 5.957031 11.222656 Z M 5.957031 10.398438 " fill-opacity="1" fill-rule="nonzero"/><path fill="#000000" d="M 7.605469 10.398438 L 8.429688 10.398438 L 8.429688 11.222656 L 7.605469 11.222656 Z M 7.605469 10.398438 " fill-opacity="1" fill-rule="nonzero"/><path fill="#000000" d="M 9.253906 10.398438 L 10.078125 10.398438 L 10.078125 11.222656 L 9.253906 11.222656 Z M 9.253906 10.398438 " fill-opacity="1" fill-rule="nonzero"/><path fill="#000000" d="M 10.902344 10.398438 L 11.726562 10.398438 L 11.726562 11.222656 L 10.902344 11.222656 Z M 10.902344 10.398438 " fill-opacity="1" fill-rule="nonzero"/><path fill="#000000" d="M 12.550781 10.398438 L 13.375 10.398438 L 13.375 11.222656 L 12.550781 11.222656 Z M 12.550781 10.398438 " fill-opacity="1" fill-rule="nonzero"/><path fill="#000000" d="M 5.957031 12.046875 L 6.78125 12.046875 L 6.78125 12.871094 L 5.957031 12.871094 Z M 5.957031 12.046875 " fill-opacity="1" fill-rule="nonzero"/><path fill="#000000" d="M 7.605469 12.046875 L 8.429688 12.046875 L 8.429688 12.871094 L 7.605469 12.871094 Z M 7.605469 12.046875 " fill-opacity="1" fill-rule="nonzero"/><path fill="#000000" d="M 9.253906 12.046875 L 10.078125 12.046875 L 10.078125 12.871094 L 9.253906 12.871094 Z M 9.253906 12.046875 " fill-opacity="1" fill-rule="nonzero"/><path fill="#000000" d="M 10.902344 12.046875 L 11.726562 12.046875 L 11.726562 12.871094 L 10.902344 12.871094 Z M 10.902344 12.046875 " fill-opacity="1" fill-rule="nonzero"/><path fill="#000000" d="M 12.550781 12.046875 L 13.375 12.046875 L 13.375 12.871094 L 12.550781 12.871094 Z M 12.550781 12.046875 " fill-opacity="1" fill-rule="nonzero"/></svg>