<svg xmlns="http://www.w3.org/2000/svg" xmlns:xlink="http://www.w3.org/1999/xlink" width="11" zoomAndPan="magnify" viewBox="0 0 8.25 8.25" height="11" preserveAspectRatio="xMidYMid meet" version="1.0"><defs><clipPath id="9efc2b9aa3"><path d="M 0.0703125 0.613281 L 6.945312 0.613281 L 6.945312 7.488281 L 0.0703125 7.488281 Z M 0.0703125 0.613281 " clip-rule="nonzero"/></clipPath></defs><g clip-path="url(#9efc2b9aa3)"><path fill="#000000" d="M 4.449219 3.984375 C 4.976562 3.664062 5.328125 3.09375 5.328125 2.433594 C 5.328125 1.433594 4.511719 0.617188 3.507812 0.617188 C 2.507812 0.617188 1.691406 1.433594 1.691406 2.433594 C 1.691406 3.09375 2.042969 3.664062 2.566406 3.984375 C 1.128906 4.394531 0.0703125 5.71875 0.0703125 7.289062 L 0.0703125 7.488281 L 6.945312 7.488281 L 6.945312 7.289062 C 6.945312 5.71875 5.890625 4.394531 4.449219 3.984375 Z M 2.09375 2.433594 C 2.09375 1.65625 2.730469 1.019531 3.507812 1.019531 C 4.289062 1.019531 4.925781 1.65625 4.925781 2.433594 C 4.925781 3.214844 4.289062 3.851562 3.507812 3.851562 C 2.730469 3.851562 2.09375 3.214844 2.09375 2.433594 Z M 0.484375 7.085938 C 0.585938 5.507812 1.90625 4.253906 3.507812 4.253906 C 5.113281 4.253906 6.429688 5.507812 6.535156 7.085938 Z M 0.484375 7.085938 " fill-opacity="1" fill-rule="nonzero"/></g></svg>